<svg id="Box_Diagrams" data-name="Box Diagrams" xmlns="http://www.w3.org/2000/svg" viewBox="0 0 1008 720"><defs><style>.cls-1{opacity:0.3;}.cls-2{fill:#f89d61;}.cls-10,.cls-11,.cls-12,.cls-13,.cls-14,.cls-15,.cls-16,.cls-2,.cls-3,.cls-4,.cls-8,.cls-9{stroke:#000;stroke-miterlimit:10;}.cls-2,.cls-4{stroke-width:1.05px;}.cls-10,.cls-11,.cls-12,.cls-13,.cls-14,.cls-15,.cls-16,.cls-3,.cls-4,.cls-8,.cls-9{fill:none;}.cls-5{font-size:16px;}.cls-5,.cls-6,.cls-7{font-family:Mission Gothic;}.cls-6{font-size:12px;}.cls-7{font-size:36px;letter-spacing:7px;}.cls-10,.cls-11,.cls-12,.cls-13,.cls-14,.cls-15,.cls-16,.cls-8,.cls-9{stroke-width:0.5px;}.cls-9{stroke-dasharray:4.05 4.05;}.cls-10{stroke-dasharray:3.74 3.74;}.cls-11{stroke-dasharray:3.67 3.67;}.cls-12{stroke-dasharray:3.74 3.74;}.cls-13{stroke-dasharray:4.04 4.04;}.cls-14{stroke-dasharray:4.04 4.04;}.cls-15{stroke-dasharray:4.03 4.03;}.cls-16{stroke-dasharray:3.93 3.93;}</style></defs><title>StateFlowDiagram</title><g id="ships" class="cls-1"><rect class="cls-2" x="404.9" y="379" width="58" height="58" transform="translate(25.9 841.9) rotate(-90)"/><rect class="cls-2" x="404.9" y="321" width="58" height="58" transform="translate(83.9 783.9) rotate(-90)"/><rect class="cls-2" x="404.9" y="263" width="58" height="58" transform="translate(141.9 725.9) rotate(-90)"/><rect class="cls-2" x="404.9" y="205" width="58" height="58" transform="translate(199.9 667.9) rotate(-90)"/><rect class="cls-2" x="347.9" y="495" width="58" height="58" transform="translate(753.81 1048) rotate(-180)"/><rect class="cls-2" x="289.9" y="495" width="58" height="58" transform="translate(637.81 1048) rotate(-180)"/><rect class="cls-2" x="231.9" y="495" width="58" height="58" transform="translate(521.81 1048) rotate(-180)"/><rect class="cls-2" x="520.9" y="495" width="58" height="58" transform="translate(25.9 1073.9) rotate(-90)"/><rect class="cls-2" x="520.9" y="437" width="58" height="58" transform="translate(83.9 1015.9) rotate(-90)"/><rect class="cls-2" x="578.9" y="205" width="58" height="58" transform="translate(1215.81 468) rotate(-180)"/><rect class="cls-2" x="173.9" y="147" width="58" height="58" transform="translate(405.81 352) rotate(-180)"/><rect class="cls-2" x="231.9" y="379" width="58" height="58" transform="translate(521.8 816) rotate(-180)"/></g><g id="Gird"><rect class="cls-3" x="173.41" y="146.71" width="464" height="464"/><line class="cls-3" x1="173.91" y1="552.71" x2="637.91" y2="552.71"/><line class="cls-3" x1="173.91" y1="494.71" x2="637.91" y2="494.71"/><line class="cls-3" x1="173.91" y1="436.71" x2="637.91" y2="436.71"/><line class="cls-3" x1="173.91" y1="378.71" x2="637.91" y2="378.71"/><line class="cls-3" x1="173.91" y1="320.71" x2="637.91" y2="320.71"/><line class="cls-3" x1="173.91" y1="262.71" x2="637.91" y2="262.71"/><line class="cls-3" x1="173.91" y1="204.71" x2="637.91" y2="204.71"/><line class="cls-3" x1="579.41" y1="146.21" x2="579.41" y2="610.21"/><line class="cls-3" x1="521.41" y1="146.21" x2="521.41" y2="610.21"/><line class="cls-3" x1="463.41" y1="146.21" x2="463.41" y2="610.21"/><line class="cls-3" x1="405.41" y1="146.21" x2="405.41" y2="610.21"/><line class="cls-3" x1="347.41" y1="146.21" x2="347.41" y2="610.21"/><line class="cls-3" x1="289.41" y1="146.21" x2="289.41" y2="610.21"/><line class="cls-3" x1="231.41" y1="146.21" x2="231.41" y2="610.21"/><rect class="cls-4" x="404.9" y="379" width="58" height="58" transform="translate(25.9 841.9) rotate(-90)"/><rect class="cls-4" x="404.9" y="321" width="58" height="58" transform="translate(83.9 783.9) rotate(-90)"/><rect class="cls-4" x="404.9" y="263" width="58" height="58" transform="translate(141.9 725.9) rotate(-90)"/><rect class="cls-4" x="404.9" y="205" width="58" height="58" transform="translate(199.9 667.9) rotate(-90)"/><rect class="cls-4" x="347.9" y="495" width="58" height="58" transform="translate(753.81 1048) rotate(-180)"/><rect class="cls-4" x="289.9" y="495" width="58" height="58" transform="translate(637.81 1048) rotate(-180)"/><rect class="cls-4" x="231.9" y="495" width="58" height="58" transform="translate(521.81 1048) rotate(-180)"/><rect class="cls-4" x="520.9" y="495" width="58" height="58" transform="translate(25.9 1073.9) rotate(-90)"/><rect class="cls-4" x="520.9" y="437" width="58" height="58" transform="translate(83.9 1015.9) rotate(-90)"/><rect class="cls-4" x="578.9" y="205" width="58" height="58" transform="translate(1215.81 468) rotate(-180)"/><rect class="cls-4" x="173.9" y="147" width="58" height="58" transform="translate(405.81 352) rotate(-180)"/><rect class="cls-4" x="231.9" y="379" width="58" height="58" transform="translate(521.8 816) rotate(-180)"/></g><g id="Text-2" data-name="Text"><text class="cls-5" transform="translate(143.36 180.8)">0</text><text class="cls-5" transform="translate(198.77 122.13)">0</text><text class="cls-5" transform="translate(147.5 72.13)">B<tspan x="8.77" y="0">O</tspan><tspan x="17.34" y="0">ARD ENCODING</tspan></text><text class="cls-6" transform="translate(180.97 179.46)">1001salt01</text><text class="cls-7" transform="translate(692.79 187.8)">1001salt01</text><text class="cls-6" transform="translate(236.71 179.46)">0100salt<tspan x="37.44" y="0">0</tspan><tspan x="42.83" y="0">2</tspan></text><text class="cls-6" transform="translate(293.63 179.46)">0<tspan x="5.39" y="0">200salt03</tspan></text><text class="cls-6" transform="translate(351.71 179.46)">0300salt<tspan x="39.61" y="0">0</tspan><tspan x="45.29" y="0">4</tspan></text><text class="cls-6" transform="translate(408.62 179.46)">0<tspan x="5.68" y="0">400salt05</tspan></text><text class="cls-6" transform="translate(466.19 179.46)">0500salt06</text><text class="cls-6" transform="translate(524.77 179.46)">0600salt07</text><text class="cls-6" transform="translate(582.89 179.46)">0700salt08</text><text class="cls-6" transform="translate(178.38 237.71)">0010salt09</text><text class="cls-6" transform="translate(238.97 237.71)">0110salt10</text><text class="cls-6" transform="translate(297.28 237.71)">0<tspan x="5.39" y="0">210salt11</tspan></text><text class="cls-6" transform="translate(354 237.71)">0310salt12</text><text class="cls-6" transform="translate(412.85 237.71)">1414salt13</text><text class="cls-6" transform="translate(469.14 237.71)">0510salt14</text><text class="cls-6" transform="translate(526.76 237.71)">0610salt15</text><text class="cls-6" transform="translate(587.68 237.71)">1<tspan x="3.22" y="0">7</tspan><tspan x="8.06" y="0">11salt16</tspan></text><text class="cls-6" transform="translate(179.41 295.71)">0<tspan x="5.78" y="0">0</tspan><tspan x="11.17" y="0">20salt17</tspan></text><text class="cls-6" transform="translate(237.88 295.71)">0120salt18</text><text class="cls-6" transform="translate(294.81 295.71)">0<tspan x="5.39" y="0">220salt19</tspan></text><text class="cls-6" transform="translate(351.54 295.71)">0320salt20</text><text class="cls-6" transform="translate(411.73 295.71)">14<tspan x="8.32" y="0">2</tspan><tspan x="13.6" y="0">4salt21</tspan></text><text class="cls-6" transform="translate(466.57 295.71)">0520salt22</text><text class="cls-6" transform="translate(524.5 295.71)">0620salt23</text><text class="cls-6" transform="translate(583.52 295.71)">0720salt<tspan x="38.39" y="0">2</tspan><tspan x="43.67" y="0">4</tspan></text><text class="cls-6" transform="translate(177.54 353.38)">0030salt25</text><text class="cls-6" transform="translate(236.67 353.38)">0130salt26</text><text class="cls-6" transform="translate(294.44 353.38)">0<tspan x="5.39" y="0">230salt27</tspan></text><text class="cls-6" transform="translate(351.71 353.38)">0330salt28</text><text class="cls-6" transform="translate(410.48 353.38)">1<tspan x="3.22" y="0">4</tspan><tspan x="8.11" y="0">34salt29</tspan></text><text class="cls-6" transform="translate(466.73 353.38)">0<tspan x="5.78" y="0">5</tspan><tspan x="11.14" y="0">30salt30</tspan></text><text class="cls-6" transform="translate(525.9 353.38)">0<tspan x="5.78" y="0">6</tspan><tspan x="11.35" y="0">30salt31</tspan></text><text class="cls-6" transform="translate(583.32 353.38)">0730salt32</text><text class="cls-6" transform="translate(177.91 411.71)">0<tspan x="5.78" y="0">0</tspan><tspan x="11.46" y="0">40salt33</tspan></text><text class="cls-6" transform="translate(239.85 411.71)">1141salt34</text><text class="cls-6" transform="translate(294.32 411.71)">0<tspan x="5.39" y="0">2</tspan><tspan x="10.67" y="0">40salt</tspan><tspan x="38.42" y="0">3</tspan><tspan x="43.62" y="0">5</tspan></text><text class="cls-6" transform="translate(351.81 411.71)">0340salt36</text><text class="cls-6" transform="translate(411.32 411.71)">1444salt37</text><text class="cls-6" transform="translate(467.06 411.71)">0<tspan x="5.78" y="0">5</tspan><tspan x="10.93" y="0">40salt38</tspan></text><text class="cls-6" transform="translate(524.6 411.71)">0640salt39</text><text class="cls-6" transform="translate(583.6 411.71)">0<tspan x="5.78" y="0">7</tspan><tspan x="9.97" y="0">40salt40</tspan></text><text class="cls-6" transform="translate(178.86 470.05)">0050salt41</text><text class="cls-6" transform="translate(236.97 470.05)">0150salt42</text><text class="cls-6" transform="translate(294.18 470.05)">0<tspan x="5.39" y="0">250salt</tspan><tspan x="39.16" y="0">4</tspan><tspan x="44.05" y="0">3</tspan></text><text class="cls-6" transform="translate(352.21 470.05)">0<tspan x="5.78" y="0">3</tspan><tspan x="10.98" y="0">50salt44</tspan></text><text class="cls-6" transform="translate(409.08 470.05)">0<tspan x="5.68" y="0">450salt45</tspan></text><text class="cls-6" transform="translate(466.64 470.05)">0550salt46</text><text class="cls-6" transform="translate(526.68 470.05)">1652salt<tspan x="37.07" y="0">4</tspan><tspan x="42.06" y="0">7</tspan></text><text class="cls-6" transform="translate(583.35 470.05)">0750salt48</text><text class="cls-6" transform="translate(177.55 527.38)">0060salt<tspan x="40.09" y="0">4</tspan><tspan x="44.89" y="0">9</tspan></text><text class="cls-6" transform="translate(238.1 527.38)">11<tspan x="6.43" y="0">6</tspan><tspan x="12" y="0">3salt50</tspan></text><text class="cls-6" transform="translate(296.22 527.38)">12<tspan x="8.77" y="0">6</tspan><tspan x="14.34" y="0">3salt51</tspan></text><text class="cls-6" transform="translate(353.13 527.38)">13<tspan x="8.6" y="0">6</tspan><tspan x="14.17" y="0">3salt52</tspan></text><text class="cls-6" transform="translate(408.88 527.38)">0<tspan x="5.68" y="0">460salt</tspan><tspan x="39.3" y="0">5</tspan><tspan x="44.65" y="0">3</tspan></text><text class="cls-6" transform="translate(466.85 527.38)">0560salt<tspan x="39.86" y="0">5</tspan><tspan x="45.01" y="0">4</tspan></text><text class="cls-6" transform="translate(525.66 527.38)">1662salt55</text><text class="cls-6" transform="translate(582.84 527.38)">0760salt56</text><text class="cls-6" transform="translate(178.62 585.71)">0070salt57</text><text class="cls-6" transform="translate(237.29 585.71)">0170salt58</text><text class="cls-6" transform="translate(294.42 585.71)">0<tspan x="5.39" y="0">270salt</tspan><tspan x="37.99" y="0">5</tspan><tspan x="43.14" y="0">9</tspan></text><text class="cls-6" transform="translate(351.97 585.71)">0370salt60</text><text class="cls-6" transform="translate(410.5 585.71)">04<tspan x="10.67" y="0">70salt61</tspan></text><text class="cls-6" transform="translate(467 585.71)">0570salt62</text><text class="cls-6" transform="translate(525.08 585.71)">0670salt<tspan x="38.7" y="0">6</tspan><tspan x="44.27" y="0">3</tspan></text><text class="cls-6" transform="translate(583.59 585.71)">0<tspan x="5.78" y="0">7</tspan><tspan x="10.61" y="0">70salt64</tspan></text><text class="cls-5" transform="translate(258.72 122.13)">1</text><text class="cls-5" transform="translate(315.03 122.13)">2</text><text class="cls-5" transform="translate(373.02 122.13)">3</text><text class="cls-5" transform="translate(430.08 122.13)">4</text><text class="cls-5" transform="translate(487.79 122.13)">5</text><text class="cls-5" transform="translate(545.77 122.13)">6</text><text class="cls-5" transform="translate(604.7 122.13)">7</text><text class="cls-5" transform="translate(754.28 311.76)">co<tspan x="15.28" y="0">n</tspan><tspan x="23.63" y="0">tains a ship (bool)</tspan></text><text class="cls-5" transform="translate(790.09 253.76)">x, y coordinates</text><text class="cls-5" transform="translate(870.09 224.26)">salt</text><text class="cls-5" transform="translate(820.66 282.54)">ship length</text><text class="cls-5" transform="translate(145.31 238.76)">1</text><text class="cls-5" transform="translate(143.63 296.8)">2</text><text class="cls-5" transform="translate(143.61 354.76)">3</text><text class="cls-5" transform="translate(143.67 413.09)">4</text><text class="cls-5" transform="translate(143.39 471.05)">5</text><text class="cls-5" transform="translate(143.36 529.09)">6</text><text class="cls-5" transform="translate(144.29 587.05)">7</text></g><g id="lines"><polyline class="cls-8" points="690.63 190.31 690.63 193.81 704.63 193.81 704.63 190.31"/><polyline class="cls-8" points="759.38 190.31 759.38 193.81 773.38 193.81 773.38 190.31"/><polyline class="cls-8" points="707.75 190.31 707.75 193.81 756 193.81 756 190.31"/><polyline class="cls-8" points="776.5 190.31 776.5 193.81 896.75 193.81 896.75 190.31"/></g><g id="dash-2" data-name="dash"><line class="cls-8" x1="869" y1="224.5" x2="867" y2="224.5"/><line class="cls-9" x1="862.95" y1="224.5" x2="840.65" y2="224.5"/><polyline class="cls-8" points="838.63 224.5 836.63 224.5 836.63 222.5"/><line class="cls-10" x1="836.63" y1="218.76" x2="836.63" y2="198.18"/><line class="cls-8" x1="836.63" y1="196.31" x2="836.63" y2="194.31"/><line class="cls-8" x1="788.6" y1="253.85" x2="786.6" y2="253.85"/><line class="cls-11" x1="782.93" y1="253.85" x2="770.07" y2="253.85"/><polyline class="cls-8" points="768.23 253.85 766.23 253.85 766.23 251.85"/><line class="cls-12" x1="766.23" y1="248.11" x2="766.23" y2="197.68"/><line class="cls-8" x1="766.23" y1="195.81" x2="766.23" y2="193.81"/><line class="cls-8" x1="819.75" y1="282.54" x2="817.75" y2="282.54"/><line class="cls-13" x1="813.71" y1="282.54" x2="735.02" y2="282.54"/><polyline class="cls-8" points="733 282.54 731 282.54 731 280.54"/><line class="cls-14" x1="731" y1="276.5" x2="731" y2="197.78"/><line class="cls-8" x1="731" y1="195.76" x2="731" y2="193.76"/><line class="cls-8" x1="754" y1="311.76" x2="752" y2="311.76"/><line class="cls-15" x1="747.97" y1="311.76" x2="701.64" y2="311.76"/><polyline class="cls-8" points="699.63 311.76 697.63 311.76 697.63 309.76"/><line class="cls-16" x1="697.63" y1="305.83" x2="697.63" y2="197.72"/><line class="cls-8" x1="697.63" y1="195.76" x2="697.63" y2="193.76"/></g></svg>
