<svg id="Box_Diagrams" data-name="Box Diagrams" xmlns="http://www.w3.org/2000/svg" viewBox="0 0 1008 720"><defs><style>.cls-1{opacity:0.3;}.cls-2{fill:#f89d61;}.cls-10,.cls-11,.cls-12,.cls-13,.cls-14,.cls-15,.cls-16,.cls-2,.cls-3,.cls-4,.cls-8,.cls-9{stroke:#000;stroke-miterlimit:10;}.cls-2,.cls-4{stroke-width:1.05px;}.cls-10,.cls-11,.cls-12,.cls-13,.cls-14,.cls-15,.cls-16,.cls-3,.cls-4,.cls-8,.cls-9{fill:none;}.cls-5{font-size:16px;}.cls-5,.cls-6,.cls-7{font-family:Mission Gothic;}.cls-6{font-size:12px;}.cls-7{font-size:36px;letter-spacing:7px;}.cls-10,.cls-11,.cls-12,.cls-13,.cls-14,.cls-15,.cls-16,.cls-8,.cls-9{stroke-width:0.5px;}.cls-9{stroke-dasharray:4.05 4.05;}.cls-10{stroke-dasharray:3.74 3.74;}.cls-11{stroke-dasharray:3.75 3.75;}.cls-12{stroke-dasharray:3.74 3.74;}.cls-13{stroke-dasharray:3.95 3.95;}.cls-14{stroke-dasharray:4.04 4.04;}.cls-15{stroke-dasharray:4.03 4.03;}.cls-16{stroke-dasharray:3.93 3.93;}</style></defs><title>StateFlowDiagram</title><g id="ships" class="cls-1"><rect class="cls-2" x="331.5" y="378.71" width="58" height="58" transform="translate(-47.2 768.21) rotate(-90)"/><rect class="cls-2" x="331.5" y="320.71" width="58" height="58" transform="translate(10.8 710.21) rotate(-90)"/><rect class="cls-2" x="331.5" y="262.71" width="58" height="58" transform="translate(68.8 652.21) rotate(-90)"/><rect class="cls-2" x="331.5" y="204.71" width="58" height="58" transform="translate(126.8 594.21) rotate(-90)"/><rect class="cls-2" x="274.5" y="494.71" width="58" height="58" transform="translate(607 1047.41) rotate(-180)"/><rect class="cls-2" x="216.5" y="494.71" width="58" height="58" transform="translate(491 1047.41) rotate(-180)"/><rect class="cls-2" x="158.5" y="494.71" width="58" height="58" transform="translate(375 1047.41) rotate(-180)"/><rect class="cls-2" x="447.5" y="494.71" width="58" height="58" transform="translate(-47.2 1000.21) rotate(-90)"/><rect class="cls-2" x="447.5" y="436.71" width="58" height="58" transform="translate(10.8 942.21) rotate(-90)"/><rect class="cls-2" x="505.5" y="204.71" width="58" height="58" transform="translate(1069 467.41) rotate(-180)"/><rect class="cls-2" x="100.5" y="146.71" width="58" height="58" transform="translate(259 351.41) rotate(-180)"/><rect class="cls-2" x="158.5" y="378.71" width="58" height="58" transform="translate(375 815.41) rotate(-180)"/></g><g id="Text-2" data-name="Text"><rect class="cls-3" x="100.01" y="146.41" width="464" height="464"/><line class="cls-3" x1="100.51" y1="552.41" x2="564.51" y2="552.41"/><line class="cls-3" x1="100.51" y1="494.41" x2="564.51" y2="494.41"/><line class="cls-3" x1="100.51" y1="436.41" x2="564.51" y2="436.41"/><line class="cls-3" x1="100.51" y1="378.41" x2="564.51" y2="378.41"/><line class="cls-3" x1="100.51" y1="320.41" x2="564.51" y2="320.41"/><line class="cls-3" x1="100.51" y1="262.41" x2="564.51" y2="262.41"/><line class="cls-3" x1="100.51" y1="204.41" x2="564.51" y2="204.41"/><line class="cls-3" x1="506.01" y1="145.91" x2="506.01" y2="609.91"/><line class="cls-3" x1="448.01" y1="145.91" x2="448.01" y2="609.91"/><line class="cls-3" x1="390.01" y1="145.91" x2="390.01" y2="609.91"/><line class="cls-3" x1="332.01" y1="145.91" x2="332.01" y2="609.91"/><line class="cls-3" x1="274.01" y1="145.91" x2="274.01" y2="609.91"/><line class="cls-3" x1="216.01" y1="145.91" x2="216.01" y2="609.91"/><line class="cls-3" x1="158.01" y1="145.91" x2="158.01" y2="609.91"/><rect class="cls-4" x="331.5" y="378.71" width="58" height="58" transform="translate(-47.2 768.21) rotate(-90)"/><rect class="cls-4" x="331.5" y="320.71" width="58" height="58" transform="translate(10.8 710.21) rotate(-90)"/><rect class="cls-4" x="331.5" y="262.71" width="58" height="58" transform="translate(68.8 652.21) rotate(-90)"/><rect class="cls-4" x="331.5" y="204.71" width="58" height="58" transform="translate(126.8 594.21) rotate(-90)"/><rect class="cls-4" x="274.5" y="494.71" width="58" height="58" transform="translate(607 1047.41) rotate(-180)"/><rect class="cls-4" x="216.5" y="494.71" width="58" height="58" transform="translate(491 1047.41) rotate(-180)"/><rect class="cls-4" x="158.5" y="494.71" width="58" height="58" transform="translate(375 1047.41) rotate(-180)"/><rect class="cls-4" x="447.5" y="494.71" width="58" height="58" transform="translate(-47.2 1000.21) rotate(-90)"/><rect class="cls-4" x="447.5" y="436.71" width="58" height="58" transform="translate(10.8 942.21) rotate(-90)"/><rect class="cls-4" x="505.5" y="204.71" width="58" height="58" transform="translate(1069 467.41) rotate(-180)"/><rect class="cls-4" x="100.5" y="146.71" width="58" height="58" transform="translate(259 351.41) rotate(-180)"/><rect class="cls-4" x="158.5" y="378.71" width="58" height="58" transform="translate(375 815.41) rotate(-180)"/><text class="cls-5" transform="translate(69.96 180.5)">0</text><text class="cls-5" transform="translate(125.37 121.84)">0</text><text class="cls-5" transform="translate(74.1 71.84)">B<tspan x="8.77" y="0">O</tspan><tspan x="17.34" y="0">ARD ENCODING</tspan></text><text class="cls-6" transform="translate(107.57 179.17)">1001salt01</text><text class="cls-7" transform="translate(619.39 187.5)">1001salt01</text><text class="cls-6" transform="translate(163.31 179.17)">0100salt<tspan x="37.44" y="0">0</tspan><tspan x="42.83" y="0">2</tspan></text><text class="cls-6" transform="translate(220.22 179.17)">0<tspan x="5.39" y="0">200salt03</tspan></text><text class="cls-6" transform="translate(278.31 179.17)">0300salt<tspan x="39.61" y="0">0</tspan><tspan x="45.29" y="0">4</tspan></text><text class="cls-6" transform="translate(335.22 179.17)">0<tspan x="5.68" y="0">400salt05</tspan></text><text class="cls-6" transform="translate(392.79 179.17)">0500salt06</text><text class="cls-6" transform="translate(451.37 179.17)">0600salt07</text><text class="cls-6" transform="translate(509.49 179.17)">0700salt08</text><text class="cls-6" transform="translate(104.98 237.42)">0010salt09</text><text class="cls-6" transform="translate(165.57 237.42)">0110salt10</text><text class="cls-6" transform="translate(223.88 237.42)">0<tspan x="5.39" y="0">210salt11</tspan></text><text class="cls-6" transform="translate(280.59 237.42)">0310salt12</text><text class="cls-6" transform="translate(339.45 237.42)">1414salt13</text><text class="cls-6" transform="translate(395.74 237.42)">0510salt14</text><text class="cls-6" transform="translate(453.36 237.42)">0610salt15</text><text class="cls-6" transform="translate(514.28 237.42)">1<tspan x="3.22" y="0">7</tspan><tspan x="8.06" y="0">11salt16</tspan></text><text class="cls-6" transform="translate(106.01 295.42)">0<tspan x="5.78" y="0">0</tspan><tspan x="11.17" y="0">20salt17</tspan></text><text class="cls-6" transform="translate(164.48 295.42)">0120salt18</text><text class="cls-6" transform="translate(221.41 295.42)">0<tspan x="5.39" y="0">220salt19</tspan></text><text class="cls-6" transform="translate(278.14 295.42)">0320salt20</text><text class="cls-6" transform="translate(338.33 295.42)">14<tspan x="8.32" y="0">2</tspan><tspan x="13.6" y="0">4salt21</tspan></text><text class="cls-6" transform="translate(393.17 295.42)">0520salt22</text><text class="cls-6" transform="translate(451.1 295.42)">0620salt23</text><text class="cls-6" transform="translate(510.12 295.42)">0720salt<tspan x="38.39" y="0">2</tspan><tspan x="43.67" y="0">4</tspan></text><text class="cls-6" transform="translate(104.14 353.09)">0030salt25</text><text class="cls-6" transform="translate(163.27 353.09)">0130salt26</text><text class="cls-6" transform="translate(221.03 353.09)">0<tspan x="5.39" y="0">230salt27</tspan></text><text class="cls-6" transform="translate(278.31 353.09)">0330salt28</text><text class="cls-6" transform="translate(337.08 353.09)">1<tspan x="3.22" y="0">4</tspan><tspan x="8.11" y="0">34salt29</tspan></text><text class="cls-6" transform="translate(393.33 353.09)">0<tspan x="5.78" y="0">5</tspan><tspan x="11.14" y="0">30salt30</tspan></text><text class="cls-6" transform="translate(452.5 353.09)">0<tspan x="5.78" y="0">6</tspan><tspan x="11.35" y="0">30salt31</tspan></text><text class="cls-6" transform="translate(509.92 353.09)">0730salt32</text><text class="cls-6" transform="translate(104.51 411.42)">0<tspan x="5.78" y="0">0</tspan><tspan x="11.46" y="0">40salt33</tspan></text><text class="cls-6" transform="translate(166.45 411.42)">1141salt34</text><text class="cls-6" transform="translate(220.91 411.42)">0<tspan x="5.39" y="0">2</tspan><tspan x="10.67" y="0">40salt</tspan><tspan x="38.42" y="0">3</tspan><tspan x="43.62" y="0">5</tspan></text><text class="cls-6" transform="translate(278.41 411.42)">0340salt36</text><text class="cls-6" transform="translate(337.92 411.42)">1444salt37</text><text class="cls-6" transform="translate(393.66 411.42)">0<tspan x="5.78" y="0">5</tspan><tspan x="10.93" y="0">40salt38</tspan></text><text class="cls-6" transform="translate(451.2 411.42)">0640salt39</text><text class="cls-6" transform="translate(510.2 411.42)">0<tspan x="5.78" y="0">7</tspan><tspan x="9.97" y="0">40salt40</tspan></text><text class="cls-6" transform="translate(105.46 469.75)">0050salt41</text><text class="cls-6" transform="translate(163.57 469.75)">0150salt42</text><text class="cls-6" transform="translate(220.78 469.75)">0<tspan x="5.39" y="0">250salt</tspan><tspan x="39.16" y="0">4</tspan><tspan x="44.05" y="0">3</tspan></text><text class="cls-6" transform="translate(278.81 469.75)">0<tspan x="5.78" y="0">3</tspan><tspan x="10.98" y="0">50salt44</tspan></text><text class="cls-6" transform="translate(335.68 469.75)">0<tspan x="5.68" y="0">450salt45</tspan></text><text class="cls-6" transform="translate(393.24 469.75)">0550salt46</text><text class="cls-6" transform="translate(453.28 469.75)">1652salt<tspan x="37.07" y="0">4</tspan><tspan x="42.06" y="0">7</tspan></text><text class="cls-6" transform="translate(509.95 469.75)">0750salt48</text><text class="cls-6" transform="translate(104.15 527.08)">0060salt<tspan x="40.09" y="0">4</tspan><tspan x="44.89" y="0">9</tspan></text><text class="cls-6" transform="translate(164.7 527.08)">11<tspan x="6.43" y="0">6</tspan><tspan x="12" y="0">3salt50</tspan></text><text class="cls-6" transform="translate(222.82 527.08)">12<tspan x="8.77" y="0">6</tspan><tspan x="14.34" y="0">3salt51</tspan></text><text class="cls-6" transform="translate(279.73 527.08)">13<tspan x="8.6" y="0">6</tspan><tspan x="14.17" y="0">3salt52</tspan></text><text class="cls-6" transform="translate(335.48 527.08)">0<tspan x="5.68" y="0">460salt</tspan><tspan x="39.3" y="0">5</tspan><tspan x="44.65" y="0">3</tspan></text><text class="cls-6" transform="translate(393.45 527.08)">0560salt<tspan x="39.86" y="0">5</tspan><tspan x="45.01" y="0">4</tspan></text><text class="cls-6" transform="translate(452.26 527.08)">1662salt55</text><text class="cls-6" transform="translate(509.44 527.08)">0760salt56</text><text class="cls-6" transform="translate(105.22 585.42)">0070salt57</text><text class="cls-6" transform="translate(163.89 585.42)">0170salt58</text><text class="cls-6" transform="translate(221.02 585.42)">0<tspan x="5.39" y="0">270salt</tspan><tspan x="37.99" y="0">5</tspan><tspan x="43.14" y="0">9</tspan></text><text class="cls-6" transform="translate(278.57 585.42)">0370salt60</text><text class="cls-6" transform="translate(337.1 585.42)">04<tspan x="10.67" y="0">70salt61</tspan></text><text class="cls-6" transform="translate(393.6 585.42)">0570salt62</text><text class="cls-6" transform="translate(451.68 585.42)">0670salt<tspan x="38.7" y="0">6</tspan><tspan x="44.27" y="0">3</tspan></text><text class="cls-6" transform="translate(510.19 585.42)">0<tspan x="5.78" y="0">7</tspan><tspan x="10.61" y="0">70salt64</tspan></text><text class="cls-5" transform="translate(185.32 121.84)">1</text><text class="cls-5" transform="translate(241.63 121.84)">2</text><text class="cls-5" transform="translate(299.61 121.84)">3</text><text class="cls-5" transform="translate(356.68 121.84)">4</text><text class="cls-5" transform="translate(414.39 121.84)">5</text><text class="cls-5" transform="translate(472.37 121.84)">6</text><text class="cls-5" transform="translate(531.29 121.84)">7</text><text class="cls-5" transform="translate(680.88 311.46)">co<tspan x="15.28" y="0">n</tspan><tspan x="23.63" y="0">tains a ship (bool)</tspan></text><text class="cls-5" transform="translate(747.26 253.46)">ship length</text><text class="cls-5" transform="translate(796.69 223.96)">salt</text><text class="cls-5" transform="translate(724.29 282.24)">xy coordinates</text><text class="cls-5" transform="translate(71.91 238.46)">1</text><text class="cls-5" transform="translate(70.22 296.5)">2</text><text class="cls-5" transform="translate(70.21 354.46)">3</text><text class="cls-5" transform="translate(70.27 412.79)">4</text><text class="cls-5" transform="translate(69.98 470.75)">5</text><text class="cls-5" transform="translate(69.96 528.79)">6</text><text class="cls-5" transform="translate(70.89 586.75)">7</text><polyline class="cls-8" points="617.22 190.02 617.22 193.52 631.22 193.52 631.22 190.02"/><polyline class="cls-8" points="685.97 190.02 685.97 193.52 699.97 193.52 699.97 190.02"/><polyline class="cls-8" points="634.35 190.02 634.35 193.52 682.6 193.52 682.6 190.02"/><polyline class="cls-8" points="703.1 190.02 703.1 193.52 823.35 193.52 823.35 190.02"/><line class="cls-8" x1="795.6" y1="224.21" x2="793.6" y2="224.21"/><line class="cls-9" x1="789.55" y1="224.21" x2="767.25" y2="224.21"/><polyline class="cls-8" points="765.22 224.21 763.22 224.21 763.22 222.21"/><line class="cls-10" x1="763.22" y1="218.46" x2="763.22" y2="197.89"/><line class="cls-8" x1="763.22" y1="196.02" x2="763.22" y2="194.02"/><line class="cls-8" x1="745.6" y1="253.56" x2="743.6" y2="253.56"/><line class="cls-11" x1="739.85" y1="253.56" x2="696.7" y2="253.56"/><polyline class="cls-8" points="694.83 253.56 692.83 253.56 692.83 251.56"/><line class="cls-12" x1="692.83" y1="247.82" x2="692.83" y2="197.38"/><line class="cls-8" x1="692.83" y1="195.52" x2="692.83" y2="193.52"/><line class="cls-8" x1="720.84" y1="282.24" x2="718.84" y2="282.24"/><line class="cls-13" x1="714.89" y1="282.24" x2="661.57" y2="282.24"/><polyline class="cls-8" points="659.6 282.24 657.6 282.24 657.6 280.24"/><line class="cls-14" x1="657.6" y1="276.21" x2="657.6" y2="197.48"/><line class="cls-8" x1="657.6" y1="195.46" x2="657.6" y2="193.46"/><line class="cls-8" x1="680.6" y1="311.46" x2="678.6" y2="311.46"/><line class="cls-15" x1="674.57" y1="311.46" x2="628.24" y2="311.46"/><polyline class="cls-8" points="626.22 311.46 624.22 311.46 624.22 309.46"/><line class="cls-16" x1="624.22" y1="305.53" x2="624.22" y2="197.43"/><line class="cls-8" x1="624.22" y1="195.46" x2="624.22" y2="193.46"/></g></svg>