<svg id="Box_Diagrams" data-name="Box Diagrams" xmlns="http://www.w3.org/2000/svg" viewBox="0 0 1008 720"><defs><style>.cls-1{opacity:0.3;}.cls-2{fill:#f89d61;}.cls-2,.cls-3,.cls-4,.cls-6{stroke:#000;stroke-miterlimit:10;}.cls-2,.cls-4{stroke-width:1.05px;}.cls-3,.cls-4,.cls-6{fill:none;}.cls-5{font-size:16px;font-family:Mission Gothic;}.cls-6{stroke-width:2px;}</style></defs><title>StateFlowDiagram</title><g id="ships" class="cls-1"><rect class="cls-2" x="159" y="495" width="58" height="58" transform="translate(376 1048) rotate(-180)"/><rect class="cls-2" x="331.85" y="378" width="58" height="58" transform="translate(721.71 814) rotate(-180)"/><rect class="cls-2" x="331.85" y="204.85" width="58" height="58" transform="translate(721.71 467.71) rotate(-180)"/><rect class="cls-2" x="623.15" y="379" width="58" height="58" transform="translate(1304.29 816) rotate(-180)"/><rect class="cls-2" x="623.15" y="495" width="58" height="58" transform="translate(1304.29 1048) rotate(-180)"/><rect class="cls-2" x="449" y="495" width="58" height="58" transform="translate(956 1048) rotate(-180)"/><rect class="cls-2" x="449" y="437" width="58" height="58" transform="translate(956 932) rotate(-180)"/><rect class="cls-2" x="159" y="379.29" width="58" height="58" transform="translate(376 816.59) rotate(-180)"/></g><g id="Text-2" data-name="Text"><rect class="cls-3" x="100.5" y="146.71" width="464" height="464"/><line class="cls-3" x1="101" y1="552.71" x2="565" y2="552.71"/><line class="cls-3" x1="101" y1="494.71" x2="565" y2="494.71"/><line class="cls-3" x1="101" y1="436.71" x2="565" y2="436.71"/><line class="cls-3" x1="101" y1="378.71" x2="565" y2="378.71"/><line class="cls-3" x1="101" y1="320.71" x2="565" y2="320.71"/><line class="cls-3" x1="101" y1="262.71" x2="565" y2="262.71"/><line class="cls-3" x1="101" y1="204.71" x2="565" y2="204.71"/><line class="cls-3" x1="506.5" y1="146.21" x2="506.5" y2="610.21"/><line class="cls-3" x1="448.5" y1="146.21" x2="448.5" y2="610.21"/><line class="cls-3" x1="390.5" y1="146.21" x2="390.5" y2="610.21"/><line class="cls-3" x1="332.5" y1="146.21" x2="332.5" y2="610.21"/><line class="cls-3" x1="274.5" y1="146.21" x2="274.5" y2="610.21"/><line class="cls-3" x1="216.5" y1="146.21" x2="216.5" y2="610.21"/><line class="cls-3" x1="158.5" y1="146.21" x2="158.5" y2="610.21"/><rect class="cls-4" x="159.29" y="379" width="58" height="58" transform="translate(376.59 816) rotate(-180)"/><rect class="cls-4" x="159.29" y="495" width="58" height="58" transform="translate(376.59 1048) rotate(-180)"/><rect class="cls-4" x="332.15" y="378" width="58" height="58" transform="translate(722.29 814) rotate(-180)"/><rect class="cls-4" x="332.15" y="204.85" width="58" height="58" transform="translate(722.29 467.71) rotate(-180)"/><rect class="cls-4" x="623.44" y="263" width="58" height="58" transform="translate(1304.88 584) rotate(-180)"/><rect class="cls-4" x="623.44" y="146.98" width="58" height="58" transform="translate(1304.88 351.96) rotate(-180)"/><rect class="cls-4" x="623.44" y="379" width="58" height="58" transform="translate(1304.88 816) rotate(-180)"/><rect class="cls-4" x="623.44" y="495" width="58" height="58" transform="translate(1304.88 1048) rotate(-180)"/><rect class="cls-4" x="449.29" y="495" width="58" height="58" transform="translate(956.59 1048) rotate(-180)"/><rect class="cls-4" x="449.29" y="437" width="58" height="58" transform="translate(956.59 932) rotate(-180)"/><text class="cls-5" transform="translate(699.2 321.04)">miss</text><text class="cls-5" transform="translate(699.2 436.96)">hit (ship partially destroyed)</text><text class="cls-5" transform="translate(699.2 552.75)">hit (ship completely destroyed)</text><text class="cls-5" transform="translate(70.46 180.8)">0</text><text class="cls-5" transform="translate(125.86 122.13)">0</text><text class="cls-5" transform="translate(185.82 122.13)">1</text><text class="cls-5" transform="translate(242.13 122.13)">2</text><text class="cls-5" transform="translate(300.11 122.13)">3</text><text class="cls-5" transform="translate(357.18 122.13)">4</text><text class="cls-5" transform="translate(414.89 122.13)">5</text><text class="cls-5" transform="translate(472.86 122.13)">6</text><text class="cls-5" transform="translate(531.79 122.13)">7</text><text class="cls-5" transform="translate(72.41 238.76)">1</text><text class="cls-5" transform="translate(70.72 296.8)">2</text><text class="cls-5" transform="translate(70.71 354.76)">3</text><text class="cls-5" transform="translate(70.77 413.09)">4</text><text class="cls-5" transform="translate(70.48 471.05)">5</text><text class="cls-5" transform="translate(70.46 529.09)">6</text><text class="cls-5" transform="translate(71.39 587.05)">7</text><text class="cls-5" transform="translate(74.59 72.13)">GUESS L<tspan x="52.98" y="0">A</tspan><tspan x="60.61" y="0">Y</tspan><tspan x="67.6" y="0">OUT</tspan></text><line class="cls-6" x1="178.87" y1="224.87" x2="197.13" y2="243.13"/><line class="cls-6" x1="178.87" y1="243.13" x2="197.13" y2="224.87"/><line class="cls-6" x1="178.87" y1="283.29" x2="197.13" y2="301.56"/><line class="cls-6" x1="178.87" y1="301.56" x2="197.13" y2="283.29"/><line class="cls-6" x1="294.44" y1="398.87" x2="312.71" y2="417.13"/><line class="cls-6" x1="294.44" y1="417.13" x2="312.71" y2="398.87"/><line class="cls-6" x1="527.15" y1="340.72" x2="545.42" y2="358.99"/><line class="cls-6" x1="527.15" y1="358.99" x2="545.42" y2="340.72"/><line class="cls-6" x1="409.87" y1="282.87" x2="428.13" y2="301.13"/><line class="cls-6" x1="409.87" y1="301.13" x2="428.13" y2="282.87"/><line class="cls-6" x1="351.87" y1="224.87" x2="370.13" y2="243.13"/><line class="cls-6" x1="351.87" y1="243.13" x2="370.13" y2="224.87"/><line class="cls-6" x1="643.16" y1="283.01" x2="661.43" y2="301.28"/><line class="cls-6" x1="643.16" y1="301.28" x2="661.43" y2="283.01"/><text class="cls-5" transform="translate(699.2 205.02)">not yet guessed</text><line class="cls-6" x1="643.16" y1="399.01" x2="661.43" y2="417.28"/><line class="cls-6" x1="643.16" y1="417.28" x2="661.43" y2="399.01"/><line class="cls-6" x1="623.44" y1="495" x2="681.15" y2="553"/><line class="cls-6" x1="623.15" y1="553" x2="681.15" y2="495"/><line class="cls-6" x1="409.87" y1="224.87" x2="428.13" y2="243.13"/><line class="cls-6" x1="409.87" y1="243.13" x2="428.13" y2="224.87"/><line class="cls-6" x1="526.44" y1="166.87" x2="544.71" y2="185.13"/><line class="cls-6" x1="526.44" y1="185.13" x2="544.71" y2="166.87"/><line class="cls-6" x1="179.44" y1="514.87" x2="197.71" y2="533.13"/><line class="cls-6" x1="179.44" y1="533.13" x2="197.71" y2="514.87"/><line class="cls-6" x1="352.87" y1="398.87" x2="371.13" y2="417.13"/><line class="cls-6" x1="352.87" y1="417.13" x2="371.13" y2="398.87"/><line class="cls-6" x1="409.87" y1="514.87" x2="428.13" y2="533.13"/><line class="cls-6" x1="409.87" y1="533.13" x2="428.13" y2="514.87"/><line class="cls-6" x1="178.87" y1="340.72" x2="197.13" y2="358.99"/><line class="cls-6" x1="178.87" y1="358.99" x2="197.13" y2="340.72"/><line class="cls-6" x1="159" y1="379.29" x2="217" y2="437.29"/><line class="cls-6" x1="159" y1="437.29" x2="217" y2="379.29"/><line class="cls-6" x1="449.27" y1="437" x2="507.27" y2="495"/><line class="cls-6" x1="449.27" y1="495" x2="507.27" y2="437"/><line class="cls-6" x1="449.27" y1="495.29" x2="507.27" y2="553.29"/><line class="cls-6" x1="449.27" y1="553.29" x2="507.27" y2="495.29"/></g></svg>