<svg id="Box_Diagrams" data-name="Box Diagrams" xmlns="http://www.w3.org/2000/svg" viewBox="0 0 1008 720"><defs><style>.cls-1{opacity:0.3;}.cls-2{fill:#f89d61;}.cls-2,.cls-3,.cls-4{stroke:#000;stroke-miterlimit:10;}.cls-2,.cls-4{stroke-width:1.05px;}.cls-3,.cls-4{fill:none;}.cls-5{font-size:16px;font-family:Mission Gothic;}</style></defs><title>StateFlowDiagram</title><g id="ships" class="cls-1"><rect class="cls-2" x="797.37" y="146.71" width="58" height="58" transform="translate(1652.75 351.41) rotate(-180)"/><rect class="cls-2" x="739.37" y="146.71" width="58" height="58" transform="translate(1536.75 351.41) rotate(-180)"/><rect class="cls-2" x="681.37" y="146.71" width="58" height="58" transform="translate(1420.75 351.41) rotate(-180)"/><rect class="cls-2" x="623.37" y="146.71" width="58" height="58" transform="translate(1304.75 351.41) rotate(-180)"/><rect class="cls-2" x="797.37" y="263" width="58" height="58" transform="translate(1652.75 584) rotate(-180)"/><rect class="cls-2" x="739.37" y="263" width="58" height="58" transform="translate(1536.75 584) rotate(-180)"/><rect class="cls-2" x="681.37" y="263" width="58" height="58" transform="translate(1420.75 584) rotate(-180)"/><rect class="cls-2" x="797.37" y="379" width="58" height="58" transform="translate(1652.75 816) rotate(-180)"/><rect class="cls-2" x="739.37" y="379" width="58" height="58" transform="translate(1536.75 816) rotate(-180)"/><rect class="cls-2" x="797.37" y="495" width="58" height="58" transform="translate(1652.75 1048) rotate(-180)"/></g><g id="Gird"><rect class="cls-3" x="100.5" y="146.71" width="464" height="464"/><line class="cls-3" x1="101" y1="552.71" x2="565" y2="552.71"/><line class="cls-3" x1="101" y1="494.71" x2="565" y2="494.71"/><line class="cls-3" x1="101" y1="436.71" x2="565" y2="436.71"/><line class="cls-3" x1="101" y1="378.71" x2="565" y2="378.71"/><line class="cls-3" x1="101" y1="320.71" x2="565" y2="320.71"/><line class="cls-3" x1="101" y1="262.71" x2="565" y2="262.71"/><line class="cls-3" x1="101" y1="204.71" x2="565" y2="204.71"/><line class="cls-3" x1="506.5" y1="146.21" x2="506.5" y2="610.21"/><line class="cls-3" x1="448.5" y1="146.21" x2="448.5" y2="610.21"/><line class="cls-3" x1="390.5" y1="146.21" x2="390.5" y2="610.21"/><line class="cls-3" x1="332.5" y1="146.21" x2="332.5" y2="610.21"/><line class="cls-3" x1="274.5" y1="146.21" x2="274.5" y2="610.21"/><line class="cls-3" x1="216.5" y1="146.21" x2="216.5" y2="610.21"/><line class="cls-3" x1="158.5" y1="146.21" x2="158.5" y2="610.21"/><rect class="cls-4" x="797.37" y="146.71" width="58" height="58" transform="translate(1652.75 351.41) rotate(-180)"/><rect class="cls-4" x="739.37" y="146.71" width="58" height="58" transform="translate(1536.75 351.41) rotate(-180)"/><rect class="cls-4" x="681.37" y="146.71" width="58" height="58" transform="translate(1420.75 351.41) rotate(-180)"/><rect class="cls-4" x="623.37" y="146.71" width="58" height="58" transform="translate(1304.75 351.41) rotate(-180)"/><rect class="cls-4" x="797.37" y="263" width="58" height="58" transform="translate(1652.75 584) rotate(-180)"/><rect class="cls-4" x="739.37" y="263" width="58" height="58" transform="translate(1536.75 584) rotate(-180)"/><rect class="cls-4" x="681.37" y="263" width="58" height="58" transform="translate(1420.75 584) rotate(-180)"/><rect class="cls-4" x="797.37" y="379" width="58" height="58" transform="translate(1652.75 816) rotate(-180)"/><rect class="cls-4" x="739.37" y="379" width="58" height="58" transform="translate(1536.75 816) rotate(-180)"/><rect class="cls-4" x="797.37" y="495" width="58" height="58" transform="translate(1652.75 1048) rotate(-180)"/></g><g id="Text-2" data-name="Text"><text class="cls-5" transform="translate(70.46 180.8)">0</text><text class="cls-5" transform="translate(125.86 122.13)">0</text><text class="cls-5" transform="translate(185.82 122.13)">1</text><text class="cls-5" transform="translate(242.13 122.13)">2</text><text class="cls-5" transform="translate(300.11 122.13)">3</text><text class="cls-5" transform="translate(357.18 122.13)">4</text><text class="cls-5" transform="translate(414.89 122.13)">5</text><text class="cls-5" transform="translate(472.86 122.13)">6</text><text class="cls-5" transform="translate(531.79 122.13)">7</text><text class="cls-5" transform="translate(874.95 205.04)">1x</text><text class="cls-5" transform="translate(874.95 320.96)">1x</text><text class="cls-5" transform="translate(874.95 436.75)">1x</text><text class="cls-5" transform="translate(873.24 552.66)">3x</text><text class="cls-5" transform="translate(72.41 238.76)">1</text><text class="cls-5" transform="translate(70.72 296.8)">2</text><text class="cls-5" transform="translate(70.71 354.76)">3</text><text class="cls-5" transform="translate(70.77 413.09)">4</text><text class="cls-5" transform="translate(70.48 471.05)">5</text><text class="cls-5" transform="translate(70.46 529.09)">6</text><text class="cls-5" transform="translate(71.39 587.05)">7</text><text class="cls-5" transform="translate(74.59 72.13)">B<tspan x="8.77" y="0">O</tspan><tspan x="17.34" y="0">ARD L</tspan><tspan x="54.05" y="0">A</tspan><tspan x="61.68" y="0">Y</tspan><tspan x="68.67" y="0">OUT</tspan></text></g></svg>