<svg id="Merkle" xmlns="http://www.w3.org/2000/svg" viewBox="0 0 4032 720"><defs><style>.cls-1{opacity:0.3;}.cls-2{fill:#b5cde3;}.cls-3{fill:#fff4de;}.cls-4{fill:#ded2df;}.cls-10,.cls-5,.cls-6,.cls-9{fill:none;stroke-miterlimit:10;}.cls-5,.cls-6{stroke:#777;}.cls-10,.cls-5,.cls-9{stroke-width:0.5px;}.cls-6{stroke-width:0.56px;}.cls-7{font-size:16px;}.cls-7,.cls-8{font-family:Mission Gothic;}.cls-8{font-size:12px;}.cls-10,.cls-9{stroke:#000;}.cls-10{stroke-dasharray:4 4;}</style></defs><title>StateFlowDiagram</title><g id="colour"><rect class="cls-2" x="1783.26" y="97.58" width="361.68" height="22" rx="11" ry="11"/><rect class="cls-3" x="2313" y="631.82" width="57.11" height="14.43" rx="7.21" ry="7.21"/><rect class="cls-3" x="2313" y="568.5" width="57.11" height="14.43" rx="7.21" ry="7.21"/><rect class="cls-3" x="2835.79" y="509" width="52.17" height="14.43" rx="6.9" ry="6.9"/><rect class="cls-4" x="2781.79" y="509" width="52.17" height="14.43" rx="6.9" ry="6.9"/><rect class="cls-4" x="2687.29" y="438.13" width="64.85" height="14.43" rx="7.21" ry="7.21"/><rect class="cls-4" x="2494.72" y="368.81" width="109.68" height="14.64" rx="6.75" ry="6.75"/><rect class="cls-4" x="2101.34" y="298.33" width="199" height="14.61" rx="7.31" ry="7.31"/><rect class="cls-4" x="3187.26" y="228.5" width="352" height="14.14" rx="6.91" ry="6.91"/><rect class="cls-4" x="859.32" y="159.85" width="352" height="14.14" rx="6.91" ry="6.91"/><rect class="cls-4" x="188.76" y="120.18" width="18" height="18"/><rect class="cls-3" x="188.76" y="74.18" width="18" height="18"/><rect class="cls-2" x="188.76" y="97.18" width="18" height="18"/></g><g id="stroke"><rect class="cls-5" x="1783.26" y="97.58" width="361.68" height="22" rx="11" ry="11"/><rect class="cls-5" x="2313" y="631.82" width="57.11" height="14.43" rx="7.21" ry="7.21"/><rect class="cls-5" x="2313" y="568.5" width="57.11" height="14.43" rx="7.21" ry="7.21"/><rect class="cls-5" x="2835.79" y="509" width="52.17" height="14.43" rx="6.9" ry="6.9"/><rect class="cls-5" x="2781.79" y="509" width="52.17" height="14.43" rx="6.9" ry="6.9"/><rect class="cls-6" x="2687.29" y="438.13" width="64.85" height="14.43" rx="7.21" ry="7.21"/><rect class="cls-5" x="2494.72" y="368.81" width="109.68" height="14.64" rx="6.75" ry="6.75"/><rect class="cls-5" x="2101.34" y="298.33" width="199" height="14.61" rx="7.31" ry="7.31"/><rect class="cls-5" x="3187.26" y="228.5" width="352" height="14.14" rx="6.91" ry="6.91"/><rect class="cls-5" x="859.32" y="159.85" width="352" height="14.14" rx="6.91" ry="6.91"/><rect class="cls-5" x="188.26" y="119.68" width="18" height="18"/><rect class="cls-5" x="188.26" y="73.68" width="18" height="18"/><rect class="cls-5" x="188.26" y="96.68" width="18" height="18"/></g><g id="text-3" data-name="text"><text class="cls-7" transform="translate(67.59 84.13)">MERKLE PROOF</text><text class="cls-8" transform="translate(69.05 615.22)">HASH</text><text class="cls-8" transform="translate(70.78 552.22)">SO<tspan x="12.58" y="0">R</tspan><tspan x="18.9" y="0">T</tspan></text><text class="cls-8" transform="translate(69.39 484.56)">HASH</text><text class="cls-8" transform="translate(69.06 416.69)">HASH</text><text class="cls-8" transform="translate(69.06 345.38)">HASH</text><text class="cls-8" transform="translate(69.06 275.08)">HASH</text><text class="cls-8" transform="translate(69.06 204.75)">HASH</text><text class="cls-8" transform="translate(69.06 143.27)">HASH</text><text class="cls-8" transform="translate(3842 643)">Data</text><text class="cls-8" transform="translate(3842 580)">Unsorted Leaves</text><text class="cls-8" transform="translate(3842 520.33)">Sorted Leaves</text><text class="cls-8" transform="translate(3842 449.67)">Level <tspan x="28.28" y="0">0</tspan><tspan x="34.09" y="0">2</tspan></text><text class="cls-8" transform="translate(3842 379.67)">Level 03</text><text class="cls-8" transform="translate(3842 309.58)">Level <tspan x="28.28" y="0">0</tspan><tspan x="34.27" y="0">4</tspan></text><text class="cls-8" transform="translate(3842 240.25)">Level 05</text><text class="cls-8" transform="translate(3842 171.42)">Level 06</text><text class="cls-8" transform="translate(3842 112.3)">Root</text><text class="cls-8" transform="translate(108.33 643)">1001salt01</text><text class="cls-8" transform="translate(164.07 643)">0100salt<tspan x="37.44" y="0">0</tspan><tspan x="42.83" y="0">2</tspan></text><text class="cls-8" transform="translate(220.98 643)">0<tspan x="5.39" y="0">200salt03</tspan></text><text class="cls-8" transform="translate(279.07 643)">0300salt<tspan x="39.61" y="0">0</tspan><tspan x="45.29" y="0">4</tspan></text><text class="cls-8" transform="translate(335.98 643)">0<tspan x="5.68" y="0">400salt05</tspan></text><text class="cls-8" transform="translate(393.54 643)">0500salt06</text><text class="cls-8" transform="translate(452.13 643)">0600salt07</text><text class="cls-8" transform="translate(510.25 643)">0700salt08</text><text class="cls-8" transform="translate(571.24 643)">0010salt09</text><text class="cls-8" transform="translate(631.83 643)">0110salt10</text><text class="cls-8" transform="translate(690.14 643)">0<tspan x="5.39" y="0">210salt11</tspan></text><text class="cls-8" transform="translate(746.85 643)">0310salt12</text><text class="cls-8" transform="translate(805.7 643)">1414salt13</text><text class="cls-8" transform="translate(862 643)">0510salt14</text><text class="cls-8" transform="translate(919.61 643)">0610salt15</text><text class="cls-8" transform="translate(980.53 643)">1<tspan x="3.22" y="0">7</tspan><tspan x="8.06" y="0">11salt16</tspan></text><text class="cls-8" transform="translate(1034.77 643)">0<tspan x="5.78" y="0">0</tspan><tspan x="11.17" y="0">20salt17</tspan></text><text class="cls-8" transform="translate(1093.24 643)">0120salt18</text><text class="cls-8" transform="translate(1150.17 643)">0<tspan x="5.39" y="0">220salt19</tspan></text><text class="cls-8" transform="translate(1206.9 643)">0320salt20</text><text class="cls-8" transform="translate(1267.09 643)">14<tspan x="8.32" y="0">2</tspan><tspan x="13.6" y="0">4salt21</tspan></text><text class="cls-8" transform="translate(1321.93 643)">0520salt22</text><text class="cls-8" transform="translate(1379.86 643)">0620salt23</text><text class="cls-8" transform="translate(1438.88 643)">0720salt<tspan x="38.39" y="0">2</tspan><tspan x="43.67" y="0">4</tspan></text><text class="cls-8" transform="translate(1499.9 643)">0030salt25</text><text class="cls-8" transform="translate(1559.03 643)">0130salt26</text><text class="cls-8" transform="translate(1616.79 643)">0<tspan x="5.39" y="0">230salt27</tspan></text><text class="cls-8" transform="translate(1674.07 643)">0330salt28</text><text class="cls-8" transform="translate(1732.83 643)">1<tspan x="3.22" y="0">4</tspan><tspan x="8.11" y="0">34salt29</tspan></text><text class="cls-8" transform="translate(1789.08 643)">0<tspan x="5.78" y="0">5</tspan><tspan x="11.14" y="0">30salt30</tspan></text><text class="cls-8" transform="translate(1848.26 643)">0<tspan x="5.78" y="0">6</tspan><tspan x="11.35" y="0">30salt31</tspan></text><text class="cls-8" transform="translate(1905.68 643)">0730salt32</text><text class="cls-8" transform="translate(1968.12 643)">0<tspan x="5.78" y="0">0</tspan><tspan x="11.46" y="0">40salt33</tspan></text><text class="cls-8" transform="translate(2030.06 643)">1141salt34</text><text class="cls-8" transform="translate(2084.52 643)">0<tspan x="5.39" y="0">2</tspan><tspan x="10.67" y="0">40salt</tspan><tspan x="38.42" y="0">3</tspan><tspan x="43.62" y="0">5</tspan></text><text class="cls-8" transform="translate(2142.02 643)">0340salt36</text><text class="cls-8" transform="translate(2201.52 643)">1444salt37</text><text class="cls-8" transform="translate(2257.27 643)">0<tspan x="5.78" y="0">5</tspan><tspan x="10.93" y="0">40salt38</tspan></text><text class="cls-8" transform="translate(2314.8 643)">0640salt39</text><text class="cls-8" transform="translate(2373.8 643)">0<tspan x="5.78" y="0">7</tspan><tspan x="9.97" y="0">40salt40</tspan></text><text class="cls-8" transform="translate(2434.36 643)">0050salt41</text><text class="cls-8" transform="translate(2492.47 643)">0150salt42</text><text class="cls-8" transform="translate(2549.68 643)">0<tspan x="5.39" y="0">250salt</tspan><tspan x="39.16" y="0">4</tspan><tspan x="44.05" y="0">3</tspan></text><text class="cls-8" transform="translate(2607.71 643)">0<tspan x="5.78" y="0">3</tspan><tspan x="10.98" y="0">50salt44</tspan></text><text class="cls-8" transform="translate(2664.58 643)">0<tspan x="5.68" y="0">450salt45</tspan></text><text class="cls-8" transform="translate(2722.14 643)">0550salt46</text><text class="cls-8" transform="translate(2782.18 643)">1652salt<tspan x="37.07" y="0">4</tspan><tspan x="42.06" y="0">7</tspan></text><text class="cls-8" transform="translate(2838.85 643)">0750salt48</text><text class="cls-8" transform="translate(2899.06 643)">0060salt<tspan x="40.09" y="0">4</tspan><tspan x="44.89" y="0">9</tspan></text><text class="cls-8" transform="translate(2959.62 643)">11<tspan x="6.43" y="0">6</tspan><tspan x="12" y="0">3salt50</tspan></text><text class="cls-8" transform="translate(3017.73 643)">12<tspan x="8.77" y="0">6</tspan><tspan x="14.34" y="0">3salt51</tspan></text><text class="cls-8" transform="translate(3074.65 643)">13<tspan x="8.6" y="0">6</tspan><tspan x="14.17" y="0">3salt52</tspan></text><text class="cls-8" transform="translate(3130.4 643)">0<tspan x="5.68" y="0">460salt</tspan><tspan x="39.3" y="0">5</tspan><tspan x="44.65" y="0">3</tspan></text><text class="cls-8" transform="translate(3188.36 643)">0560salt<tspan x="39.86" y="0">5</tspan><tspan x="45.01" y="0">4</tspan></text><text class="cls-8" transform="translate(3247.17 643)">1662salt55</text><text class="cls-8" transform="translate(3304.36 643)">0760salt56</text><text class="cls-8" transform="translate(3366.64 643)">0070salt57</text><text class="cls-8" transform="translate(3425.31 643)">0170salt58</text><text class="cls-8" transform="translate(3482.44 643)">0<tspan x="5.39" y="0">270salt</tspan><tspan x="37.99" y="0">5</tspan><tspan x="43.14" y="0">9</tspan></text><text class="cls-8" transform="translate(3539.99 643)">0370salt60</text><text class="cls-8" transform="translate(3598.52 643)">04<tspan x="10.67" y="0">70salt61</tspan></text><text class="cls-8" transform="translate(3655.02 643)">0570salt62</text><text class="cls-8" transform="translate(3713.09 643)">0670salt<tspan x="38.7" y="0">6</tspan><tspan x="44.27" y="0">3</tspan></text><text class="cls-8" transform="translate(3771.61 643)">0<tspan x="5.78" y="0">7</tspan><tspan x="10.61" y="0">70salt64</tspan></text><text class="cls-8" transform="translate(110.75 580)">0x5623...</text><text class="cls-8" transform="translate(170.03 580)">0x4b0f...</text><text class="cls-8" transform="translate(227.02 580)">0xb3e3...</text><text class="cls-8" transform="translate(287.7 580)">0xd0c...</text><text class="cls-8" transform="translate(343.33 580)">0x<tspan x="10.79" y="0">7</tspan><tspan x="15.64" y="0">1bb...</tspan></text><text class="cls-8" transform="translate(401.09 580)">0xf<tspan x="14.15" y="0">9</tspan><tspan x="19.48" y="0">38...</tspan></text><text class="cls-8" transform="translate(458.21 580)">0x<tspan x="10.79" y="0">9</tspan><tspan x="16.13" y="0">4</tspan><tspan x="20.93" y="0">9e...</tspan></text><text class="cls-8" transform="translate(517.16 580)">0x1<tspan x="14" y="0">0</tspan><tspan x="19.68" y="0">42...</tspan></text><text class="cls-8" transform="translate(577.72 580)">0x1452...</text><text class="cls-8" transform="translate(634.06 580)">0x2800...</text><text class="cls-8" transform="translate(693.51 580)">0x<tspan x="10.79" y="0">9</tspan><tspan x="16.31" y="0">551...</tspan></text><text class="cls-8" transform="translate(751.97 580)">0x703f...</text><text class="cls-8" transform="translate(807.61 580)">0x98c4...</text><text class="cls-8" transform="translate(867.51 580)">0x01ef...</text><text class="cls-8" transform="translate(924.53 580)">0x<tspan x="10.79" y="0">f</tspan><tspan x="13.93" y="0">e28...</tspan></text><text class="cls-8" transform="translate(982.65 580)">0xf48e...</text><text class="cls-8" transform="translate(1040.51 580)">0x4<tspan x="15.89" y="0">f</tspan><tspan x="18.94" y="0">ac...</tspan></text><text class="cls-8" transform="translate(1098.03 580)">0xd40f...</text><text class="cls-8" transform="translate(1154.61 580)">0x3998...</text><text class="cls-8" transform="translate(1212.17 580)">0x40bc....</text><text class="cls-8" transform="translate(1270.45 580)">0x<tspan x="10.79" y="0">5</tspan><tspan x="15.94" y="0">9</tspan><tspan x="21.26" y="0">34...</tspan></text><text class="cls-8" transform="translate(1327.37 580)">0x669a...</text><text class="cls-8" transform="translate(1385.4 580)">0x6b99...</text><text class="cls-8" transform="translate(1445.01 580)">0xd<tspan x="16.36" y="0">f</tspan><tspan x="19.5" y="0">dd...</tspan></text><text class="cls-8" transform="translate(1506.04 580)">0x22dc...</text><text class="cls-8" transform="translate(1563.66 580)">0xba80...</text><text class="cls-8" transform="translate(1623.38 580)">0xfb70...</text><text class="cls-8" transform="translate(1679.42 580)">0x9260...</text><text class="cls-8" transform="translate(1737.83 580)">0x61d5...</text><text class="cls-8" transform="translate(1794.54 580)">0x0d65...</text><text class="cls-8" transform="translate(1852.86 580)">0x<tspan x="10.79" y="0">6</tspan><tspan x="16.36" y="0">38d...</tspan></text><text class="cls-8" transform="translate(1910.4 580)">0x9296...</text><text class="cls-8" transform="translate(1975.33 580)">0xc4e1...</text><text class="cls-8" transform="translate(2032.46 580)">0xf656...</text><text class="cls-8" transform="translate(2089.71 580)">0x8c62...</text><text class="cls-8" transform="translate(2148.88 580)">0x4d0f...</text><text class="cls-8" transform="translate(2206.57 580)">0xcf75...</text><text class="cls-8" transform="translate(2262.2 580)">0x6698...</text><text class="cls-8" transform="translate(2320.65 580)">0xba55...</text><text class="cls-8" transform="translate(2378.74 580)">0xd3bb...</text><text class="cls-8" transform="translate(2440.13 580)">0x251d...</text><text class="cls-8" transform="translate(2497.49 580)">0x6444...</text><text class="cls-8" transform="translate(2555.27 580)">0x760b...</text><text class="cls-8" transform="translate(2614.31 580)">0x<tspan x="10.79" y="0">7</tspan><tspan x="14.98" y="0">4</tspan><tspan x="20.08" y="0">5</tspan><tspan x="25.22" y="0">4...</tspan></text><text class="cls-8" transform="translate(2672.31 580)">0x8e11...</text><text class="cls-8" transform="translate(2728.09 580)">0x9b4e...</text><text class="cls-8" transform="translate(2790.43 580)">0x1fff...</text><text class="cls-8" transform="translate(2843.68 580)">0x6e98...</text><text class="cls-8" transform="translate(2906.33 580)">0xebcf...</text><text class="cls-8" transform="translate(2962.85 580)">0xb0b2...</text><text class="cls-8" transform="translate(3020.91 580)">0x0b38...</text><text class="cls-8" transform="translate(3079.09 580)">0x80ec...</text><text class="cls-8" transform="translate(3136.96 580)">0x1889...</text><text class="cls-8" transform="translate(3194.17 580)">0x<tspan x="10.79" y="0">9</tspan><tspan x="16.31" y="0">5</tspan><tspan x="21.86" y="0">0</tspan><tspan x="27.54" y="0">4...</tspan></text><text class="cls-8" transform="translate(3252.06 580)">0x<tspan x="10.79" y="0">0</tspan><tspan x="16.18" y="0">2b2...</tspan></text><text class="cls-8" transform="translate(3311.6 580)">0x9f<tspan x="19.97" y="0">8</tspan><tspan x="25.38" y="0">7...</tspan></text><text class="cls-8" transform="translate(3373.94 580)">0xf8c1...</text><text class="cls-8" transform="translate(3429.53 580)">0x6cda...</text><text class="cls-8" transform="translate(3487.34 580)">0x2003...</text><text class="cls-8" transform="translate(3545.68 580)">0xa2ac...</text><text class="cls-8" transform="translate(3602.6 580)">0x683c...</text><text class="cls-8" transform="translate(3660.4 580)">0xa8b8...</text><text class="cls-8" transform="translate(3720.02 580)">0x<tspan x="10.79" y="0">9</tspan><tspan x="16.5" y="0">791...</tspan></text><text class="cls-8" transform="translate(3776.66 580)">0x99cc...</text><text class="cls-8" transform="translate(113.01 520.34)">0x01ef...</text><text class="cls-8" transform="translate(168.9 520.34)">0x<tspan x="10.79" y="0">0</tspan><tspan x="16.18" y="0">2b2...</tspan></text><text class="cls-8" transform="translate(226.75 520.34)">0x0b38...</text><text class="cls-8" transform="translate(284.54 520.34)">0x0d65...</text><text class="cls-8" transform="translate(343.16 520.34)">0x1<tspan x="14" y="0">0</tspan><tspan x="19.68" y="0">42...</tspan></text><text class="cls-8" transform="translate(401.22 520.34)">0x1452...</text><text class="cls-8" transform="translate(458.8 520.34)">0x1889...</text><text class="cls-8" transform="translate(520.28 520.34)">0x1fff...</text><text class="cls-8" transform="translate(576.18 520.34)">0x2003...</text><text class="cls-8" transform="translate(634.54 520.34)">0x22dc...</text><text class="cls-8" transform="translate(693.48 520.34)">0x251d...</text><text class="cls-8" transform="translate(750.06 520.34)">0x2800...</text><text class="cls-8" transform="translate(807.11 520.34)">0x3998...</text><text class="cls-8" transform="translate(865.65 520.34)">0x40bc...</text><text class="cls-8" transform="translate(924.53 520.34)">0x4b0f...</text><text class="cls-8" transform="translate(982.53 520.34)">0x4d0f...</text><text class="cls-8" transform="translate(1040.51 520.34)">0x4<tspan x="15.89" y="0">f</tspan><tspan x="18.94" y="0">ac...</tspan></text><text class="cls-8" transform="translate(1096.75 520.34)">0x5623...</text><text class="cls-8" transform="translate(1155.83 520.34)">0x61d5...</text><text class="cls-8" transform="translate(1211.89 520.34)">0x<tspan x="10.79" y="0">6</tspan><tspan x="16.36" y="0">38d....</tspan></text><text class="cls-8" transform="translate(1270.35 520.34)">0x6444...</text><text class="cls-8" transform="translate(1327.35 520.34)">0x6698...</text><text class="cls-8" transform="translate(1385.37 520.34)">0x669a...</text><text class="cls-8" transform="translate(1443.94 520.34)">0x683c...</text><text class="cls-8" transform="translate(1505.4 520.34)">0x6b99...</text><text class="cls-8" transform="translate(1563.87 520.34)">0x6cda...</text><text class="cls-8" transform="translate(1621.54 520.34)">0x6e98...</text><text class="cls-8" transform="translate(1681.47 520.34)">0x703f...</text><text class="cls-8" transform="translate(1738.33 520.34)">0x<tspan x="10.79" y="0">7</tspan><tspan x="15.64" y="0">1bb...</tspan></text><text class="cls-8" transform="translate(1796.17 520.34)">0x<tspan x="10.79" y="0">7</tspan><tspan x="14.98" y="0">4</tspan><tspan x="20.08" y="0">5</tspan><tspan x="25.22" y="0">4...</tspan></text><text class="cls-8" transform="translate(1853.13 520.34)">0x760b...</text><text class="cls-8" transform="translate(1910.93 520.34)">0x80ec...</text><text class="cls-8" transform="translate(1973.71 520.34)">0x8c62...</text><text class="cls-8" transform="translate(2034.02 520.34)">0x8e11...</text><text class="cls-8" transform="translate(2089.27 520.34)">0x9260...</text><text class="cls-8" transform="translate(2147.25 520.34)">0x9296...</text><text class="cls-8" transform="translate(2205.06 520.34)">0x<tspan x="10.79" y="0">9</tspan><tspan x="16.13" y="0">4</tspan><tspan x="20.93" y="0">9e...</tspan></text><text class="cls-8" transform="translate(2262.86 520.34)">0x<tspan x="10.79" y="0">9</tspan><tspan x="16.31" y="0">5</tspan><tspan x="21.86" y="0">0</tspan><tspan x="27.54" y="0">4...</tspan></text><text class="cls-8" transform="translate(2321.86 520.34)">0x<tspan x="10.79" y="0">9</tspan><tspan x="16.31" y="0">551...</tspan></text><text class="cls-8" transform="translate(2378.96 520.34)">0x98c4...</text><text class="cls-8" transform="translate(2439.14 520.34)">0x99cc...</text><text class="cls-8" transform="translate(2497.09 520.34)">0x9b4e...</text><text class="cls-8" transform="translate(2556.58 520.34)">0x9f<tspan x="19.97" y="0">8</tspan><tspan x="25.38" y="0">7...</tspan></text><text class="cls-8" transform="translate(2613.16 520.34)">0xa2ac...</text><text class="cls-8" transform="translate(2669.88 520.34)">0xa8b8...</text><text class="cls-8" transform="translate(2727.84 520.34)">0xb0b2...</text><text class="cls-8" transform="translate(2786.16 520.34)">0xb3e3...</text><text class="cls-8" transform="translate(2843.95 520.34)">0xba55...</text><text class="cls-8" transform="translate(2904.82 520.33)">0xba80...</text><text class="cls-8" transform="translate(2964.64 520.33)">0xc4e1...</text><text class="cls-8" transform="translate(3022.88 520.33)">0xcf75...</text><text class="cls-8" transform="translate(3079.31 520.33)">0xd0c4...</text><text class="cls-8" transform="translate(3136.04 520.33)">0xd3bb...</text><text class="cls-8" transform="translate(3195.19 520.33)">0xd40f...</text><text class="cls-8" transform="translate(3253.17 520.33)">0xd<tspan x="16.36" y="0">f</tspan><tspan x="19.5" y="0">dd...</tspan></text><text class="cls-8" transform="translate(3311.33 520.33)">0xebcf...</text><text class="cls-8" transform="translate(3372.81 520.34)">0xf48e...</text><text class="cls-8" transform="translate(3430.27 520.34)">0xf656...</text><text class="cls-8" transform="translate(3489.94 520.34)">0xf8c1...</text><text class="cls-8" transform="translate(3546.75 520.34)">0xf<tspan x="14.15" y="0">9</tspan><tspan x="19.48" y="0">38...</tspan></text><text class="cls-8" transform="translate(3604.04 520.34)">0xfb70...</text><text class="cls-8" transform="translate(3661.69 520.34)">0x<tspan x="10.79" y="0">f</tspan><tspan x="13.93" y="0">e28...</tspan></text><text class="cls-8" transform="translate(3721.82 520.34)">0xff18...</text><text class="cls-8" transform="translate(3778.79 520.34)">0xf<tspan x="14.15" y="0">f</tspan><tspan x="17.2" y="0">a8...</tspan></text><text class="cls-8" transform="translate(129.86 449.67)">0xb8a9a440...</text><text class="cls-8" transform="translate(247.29 449.67)">0x923b1d07...</text><text class="cls-8" transform="translate(361.88 449.67)">0xa6b<tspan x="27.8" y="0">3</tspan><tspan x="33" y="0">5</tspan><tspan x="38.15" y="0">9fb...</tspan></text><text class="cls-8" transform="translate(476.99 449.67)">0x<tspan x="10.79" y="0">6</tspan><tspan x="16.36" y="0">3485522...</tspan></text><text class="cls-8" transform="translate(598.49 449.67)">0x1bf26f3a...</text><text class="cls-8" transform="translate(711.82 449.67)">0x29<tspan x="22.16" y="0">0</tspan><tspan x="27.55" y="0">2cccb...</tspan></text><text class="cls-8" transform="translate(828.3 449.67)">0xd91208e1...</text><text class="cls-8" transform="translate(942.12 449.67)">0x30a83ed9...</text><text class="cls-8" transform="translate(1060.12 449.67)">0xa92dd1c1...</text><text class="cls-8" transform="translate(1174.26 449.67)">0x26aa<tspan x="33.37" y="0">4</tspan><tspan x="38.36" y="0">79b...</tspan></text><text class="cls-8" transform="translate(1288.41 449.67)">0xe0<tspan x="22.06" y="0">6</tspan><tspan x="27.62" y="0">329b6...</tspan></text><text class="cls-8" transform="translate(1405.24 449.67)">0xd8296d<tspan x="44.78" y="0">4</tspan><tspan x="49.78" y="0">7...</tspan></text><text class="cls-8" transform="translate(1527.51 449.67)">0xf920<tspan x="31.31" y="0">7</tspan><tspan x="36.16" y="0">167...</tspan></text><text class="cls-8" transform="translate(1642.02 449.67)">0x0<tspan x="16.57" y="0">7</tspan><tspan x="21.42" y="0">1a8</tspan><tspan x="35.83" y="0">6</tspan><tspan x="41.4" y="0">39...</tspan></text><text class="cls-8" transform="translate(1756.96 449.67)">0x3ddb9b4f...</text><text class="cls-8" transform="translate(1873.14 449.67)">0x<tspan x="10.79" y="0">4</tspan><tspan x="15.59" y="0">9</tspan><tspan x="21.3" y="0">73b072...</tspan></text><text class="cls-8" transform="translate(1992.39 449.67)">0x00ddb2d3...</text><text class="cls-8" transform="translate(2110.18 449.67)">0x22e48dc1...</text><text class="cls-8" transform="translate(2225.16 449.67)">0x333a1d84...</text><text class="cls-8" transform="translate(2340.45 449.67)">0xc8334cb3...</text><text class="cls-8" transform="translate(2460.43 449.67)">0xc100760f...</text><text class="cls-8" transform="translate(2576.05 449.67)">0xa4a234f7...</text><text class="cls-8" transform="translate(2691.11 449.67)">0xf2<tspan x="19.7" y="0">5</tspan><tspan x="24.85" y="0">9f0c0...</tspan></text><text class="cls-8" transform="translate(2807.59 449.67)">0xff7<tspan x="21.9" y="0">0</tspan><tspan x="27.29" y="0">2de6...</tspan></text><text class="cls-8" transform="translate(2923.6 449.67)">0x056<tspan x="28" y="0">6</tspan><tspan x="33.56" y="0">388a...</tspan></text><text class="cls-8" transform="translate(3043.41 449.67)">0x11e5<tspan x="28.26" y="0">0</tspan><tspan x="33.65" y="0">2af...</tspan></text><text class="cls-8" transform="translate(3156.67 449.67)">0x42ca1842...</text><text class="cls-8" transform="translate(3272.04 449.67)">0xf2baa6ec...</text><text class="cls-8" transform="translate(3391.74 449.67)">0xbb3da2cf...</text><text class="cls-8" transform="translate(3507.64 449.67)">0xc652f3<tspan x="41.63" y="0">9</tspan><tspan x="47.15" y="0">5...</tspan></text><text class="cls-8" transform="translate(3624.05 449.67)">0xb<tspan x="16.36" y="0">f</tspan><tspan x="19.4" y="0">a641ca...</tspan></text><text class="cls-8" transform="translate(3739.47 449.67)">0xa0ac4e17...</text><text class="cls-8" transform="translate(169.43 379.67)">0x66<tspan x="22.52" y="0">f</tspan><tspan x="25.57" y="0">ae4e626e8a3ac...</tspan></text><text class="cls-8" transform="translate(400.12 379.67)">0x3c383c682e5657a8...</text><text class="cls-8" transform="translate(635.77 379.67)">0x0<tspan x="16.57" y="0">f</tspan><tspan x="19.62" y="0">a886e1adb80a0c...</tspan></text><text class="cls-8" transform="translate(867.15 379.67)">0x6cdd513f9d29ed4e...</text><text class="cls-8" transform="translate(1098.86 379.67)">0xb1c4<tspan x="29.78" y="0">5</tspan><tspan x="35.14" y="0">3d83ae4b0</tspan><tspan x="84.61" y="0">8</tspan><tspan x="90.02" y="0">7...</tspan></text><text class="cls-8" transform="translate(1327.41 379.67)">0x09839cb9a67ebda2...</text><text class="cls-8" transform="translate(1566.85 379.67)">0x21164f25c89dea5e...</text><text class="cls-8" transform="translate(1797.92 379.67)">0xe2c<tspan x="26.94" y="0">9</tspan><tspan x="32.46" y="0">5cc27f09c5cf...</tspan></text><text class="cls-8" transform="translate(2032.52 379.67)">0x52baabaca8<tspan x="66.08" y="0">0</tspan><tspan x="71.47" y="0">22813...</tspan></text><text class="cls-8" transform="translate(2266.75 379.67)">0x<tspan x="10.79" y="0">8</tspan><tspan x="16.2" y="0">7e</tspan><tspan x="26.08" y="0">9</tspan><tspan x="31.42" y="0">41e84</tspan><tspan x="55.93" y="0">f</tspan><tspan x="58.98" y="0">a0</tspan><tspan x="70.34" y="0">f</tspan><tspan x="73.39" y="0">ad0...</tspan></text><text class="cls-8" transform="translate(2499.78 379.67)">0xe2f986572f9f05c6...</text><text class="cls-8" transform="translate(2732.05 379.67)">0x7fbeb23168c7c73c...</text><text class="cls-8" transform="translate(2965.11 379.67)">0x4ec31dde7dcd98<tspan x="83.78" y="0">9</tspan><tspan x="89.12" y="0">4...</tspan></text><text class="cls-8" transform="translate(3198.09 379.67)">0x07034161<tspan x="49.54" y="0">7</tspan><tspan x="54.36" y="0">7</tspan><tspan x="58.75" y="0">f</tspan><tspan x="61.9" y="0">d2296...</tspan></text><text class="cls-8" transform="translate(3432.01 379.67)">0xb37d11425a6c306e...</text><text class="cls-8" transform="translate(3660.25 379.67)">0xee40badaab5cabeb...</text><text class="cls-8" transform="translate(318.11 664.53)">R<tspan x="6.56" y="0">O</tspan><tspan x="13.09" y="0">W 00</tspan></text><text class="cls-8" transform="translate(785.08 664.53)">R<tspan x="6.56" y="0">O</tspan><tspan x="13.09" y="0">W 01</tspan></text><text class="cls-8" transform="translate(1246.51 664.53)">R<tspan x="6.56" y="0">O</tspan><tspan x="13.09" y="0">W </tspan><tspan x="25.37" y="0">0</tspan><tspan x="31.18" y="0">2</tspan></text><text class="cls-8" transform="translate(1713.3 664.53)">R<tspan x="6.56" y="0">O</tspan><tspan x="13.09" y="0">W 03</tspan></text><text class="cls-8" transform="translate(2181.3 664.53)">R<tspan x="6.56" y="0">O</tspan><tspan x="13.09" y="0">W </tspan><tspan x="25.37" y="0">0</tspan><tspan x="31.36" y="0">4</tspan></text><text class="cls-8" transform="translate(2646.27 664.53)">R<tspan x="6.56" y="0">O</tspan><tspan x="13.09" y="0">W 05</tspan></text><text class="cls-8" transform="translate(3112.27 664.53)">R<tspan x="6.56" y="0">O</tspan><tspan x="13.09" y="0">W 06</tspan></text><text class="cls-8" transform="translate(3579.47 664.53)">R<tspan x="6.56" y="0">O</tspan><tspan x="13.09" y="0">W 07</tspan></text><text class="cls-8" transform="translate(249.09 309.58)">0x91<tspan x="19.82" y="0">8</tspan><tspan x="25.24" y="0">72ff3214cb1</tspan><tspan x="75.06" y="0">3</tspan><tspan x="80.25" y="0">576e2</tspan><tspan x="107.11" y="0">6</tspan><tspan x="112.68" y="0">3ac65b7e251...</tspan></text><text class="cls-8" transform="translate(714.46 309.58)">0x7eda1dc2d8<tspan x="62.45" y="0">9</tspan><tspan x="67.97" y="0">5a56bd70e</tspan><tspan x="117.32" y="0">7</tspan><tspan x="122.15" y="0">7</tspan><tspan x="126.33" y="0">417</tspan><tspan x="139.04" y="0">8</tspan><tspan x="144.45" y="0">7</tspan><tspan x="149.28" y="0">7f</tspan><tspan x="157.03" y="0">7</tspan><tspan x="161.88" y="0">1c...</tspan></text><text class="cls-8" transform="translate(1176.78 309.58)">0x4c0d301<tspan x="46.74" y="0">9</tspan><tspan x="52.45" y="0">7</tspan><tspan x="57.3" y="0">108f489c41911</tspan><tspan x="117.49" y="0">7</tspan><tspan x="121.68" y="0">4a40</tspan><tspan x="143.24" y="0">5</tspan><tspan x="148.39" y="0">4e90...</tspan></text><text class="cls-8" transform="translate(1640.12 309.58)">0x055e2b140cc90e2<tspan x="91.26" y="0">0</tspan><tspan x="96.93" y="0">409f7c8</tspan><tspan x="132.12" y="0">f</tspan><tspan x="135.26" y="0">ea</tspan><tspan x="146.33" y="0">8</tspan><tspan x="151.74" y="0">7b9</tspan><tspan x="167.52" y="0">2</tspan><tspan x="172.8" y="0">4...</tspan></text><text class="cls-8" transform="translate(2103.46 309.58)">0x23626<tspan x="39.02" y="0">5</tspan><tspan x="44.17" y="0">9601c5da2ebd8ab6829ec4008d...</tspan></text><text class="cls-8" transform="translate(2576.51 309.58)">0x2ec0b725<tspan x="53.8" y="0">8</tspan><tspan x="59.21" y="0">798</tspan><tspan x="75.03" y="0">9</tspan><tspan x="80.36" y="0">338</tspan><tspan x="96.75" y="0">f</tspan><tspan x="99.9" y="0">df</tspan><tspan x="108.83" y="0">49</tspan><tspan x="119.15" y="0">551f</tspan><tspan x="136.83" y="0">7</tspan><tspan x="141.66" y="0">7d7c</tspan><tspan x="161.12" y="0">4</tspan><tspan x="166.02" y="0">3...</tspan></text><text class="cls-8" transform="translate(3037.16 309.58)">0x5572d<tspan x="37.42" y="0">0</tspan><tspan x="42.8" y="0">2b3a</tspan><tspan x="64.9" y="0">9</tspan><tspan x="70.22" y="0">33b2d8</tspan><tspan x="103.31" y="0">3</tspan><tspan x="108.5" y="0">56c</tspan><tspan x="125.04" y="0">0</tspan><tspan x="130.71" y="0">4</tspan><tspan x="135.81" y="0">6</tspan><tspan x="141.38" y="0">384f5072...</tspan></text><text class="cls-8" transform="translate(3510.99 309.58)">0x<tspan x="10.79" y="0">f</tspan><tspan x="13.93" y="0">c</tspan><tspan x="19.04" y="0">4</tspan><tspan x="23.84" y="0">98e172c1465</tspan><tspan x="78.78" y="0">f</tspan><tspan x="81.92" y="0">e680f7a14ee64</tspan><tspan x="148.26" y="0">f</tspan><tspan x="151.4" y="0">d3c...</tspan></text><text class="cls-8" transform="translate(397.8 240.25)">0xb6<tspan x="22.22" y="0">2</tspan><tspan x="27.5" y="0">4d058e2e588f983f</tspan><tspan x="111.98" y="0">7</tspan><tspan x="116.81" y="0">7be8f</tspan><tspan x="141.23" y="0">0</tspan><tspan x="146.61" y="0">2f7f12d75ad3b1f699a1e272206d0dbbdeab08</tspan></text><text class="cls-8" transform="translate(1325.22 240.25)">0x42d23e<tspan x="43.44" y="0">9</tspan><tspan x="48.78" y="0">4</tspan><tspan x="53.77" y="0">7dd4576e3b2</tspan><tspan x="112.21" y="0">5</tspan><tspan x="117.36" y="0">425dc11cc001</tspan><tspan x="175.69" y="0">4</tspan><tspan x="180.49" y="0">9dbbb5ae085c38d7d9f7a13ec2a1889</tspan></text><text class="cls-8" transform="translate(2261.79 240.25)">0x51c701f0860<tspan x="64.48" y="0">9</tspan><tspan x="70" y="0">5c7</tspan><tspan x="85.05" y="0">0</tspan><tspan x="90.44" y="0">2e5a207e7</tspan><tspan x="138.23" y="0">8</tspan><tspan x="143.64" y="0">7b</tspan><tspan x="153.6" y="0">0</tspan><tspan x="158.99" y="0">28</tspan><tspan x="170.16" y="0">0</tspan><tspan x="175.83" y="0">4</tspan><tspan x="180.63" y="0">9aea4c5ff</tspan><tspan x="225.59" y="0">9</tspan><tspan x="230.93" y="0">4b2a5d7cadd961afbd7b4</tspan></text><text class="cls-8" transform="translate(3195.64 240.25)">0xa84116a4d22e3cb6088442328eee037651f1c3<tspan x="207.22" y="0">f</tspan><tspan x="210.27" y="0">a1bbeb</tspan><tspan x="241.26" y="0">4</tspan><tspan x="246.15" y="0">323301d1</tspan><tspan x="285.65" y="0">f</tspan><tspan x="288.8" y="0">c303322</tspan><tspan x="326.97" y="0">7</tspan><tspan x="331.82" y="0">1</tspan></text><text class="cls-8" transform="translate(1791.12 112.3)">0x<tspan x="10.79" y="0">9</tspan><tspan x="16.31" y="0">57f6</tspan><tspan x="35.48" y="0">7</tspan><tspan x="40.33" y="0">1a9ab</tspan><tspan x="66.1" y="0">4</tspan><tspan x="70.99" y="0">334d</tspan><tspan x="92.43" y="0">4</tspan><tspan x="97.43" y="0">7</tspan><tspan x="102.27" y="0">12</tspan><tspan x="111.05" y="0">8</tspan><tspan x="116.46" y="0">7</tspan><tspan x="120.85" y="0">0</tspan><tspan x="126.53" y="0">4a6552badf56223d444df0</tspan><tspan x="243.32" y="0">9</tspan><tspan x="248.65" y="0">3cd3730a580d15edbd</tspan></text><text class="cls-8" transform="translate(862.4 171.42)">0x<tspan x="10.79" y="0">9</tspan><tspan x="16.31" y="0">57f6</tspan><tspan x="35.48" y="0">7</tspan><tspan x="40.33" y="0">1a9ab</tspan><tspan x="66.1" y="0">4</tspan><tspan x="70.99" y="0">334d</tspan><tspan x="92.43" y="0">4</tspan><tspan x="97.43" y="0">7</tspan><tspan x="102.27" y="0">12</tspan><tspan x="111.05" y="0">8</tspan><tspan x="116.46" y="0">7</tspan><tspan x="120.85" y="0">0</tspan><tspan x="126.53" y="0">4a6552badf56223d444df0</tspan><tspan x="243.32" y="0">9</tspan><tspan x="248.65" y="0">3cd3730a580d15edbd</tspan></text><text class="cls-8" transform="translate(2729.08 171.42)">0xf03ef33d<tspan x="50.51" y="0">f</tspan><tspan x="53.65" y="0">d29e33ee33daf06a8a16f</tspan><tspan x="163.98" y="0">3</tspan><tspan x="169.17" y="0">573d6762</tspan><tspan x="211.76" y="0">9</tspan><tspan x="217.47" y="0">7</tspan><tspan x="222.32" y="0">1a3</tspan><tspan x="236.5" y="0">3</tspan><tspan x="241.7" y="0">5fbd0b</tspan><tspan x="273.1" y="0">4</tspan><tspan x="278.1" y="0">7e6a1a92a1e1</tspan></text><text class="cls-8" transform="translate(214.78 86.74)">Leaf</text><text class="cls-8" transform="translate(214.78 109.74)">Merkle Root</text><text class="cls-8" transform="translate(214.78 132.74)">Proof</text></g><g id="arrows"><line class="cls-9" x1="3815.43" y1="555.99" x2="3813.43" y2="555.99"/><line class="cls-10" x1="3809.43" y1="555.98" x2="109.13" y2="547.71"/><line class="cls-9" x1="107.14" y1="547.7" x2="105.14" y2="547.7"/><polygon points="3814.71 553.5 3819.02 556 3814.7 558.48 3814.71 553.5"/><line class="cls-9" x1="130.26" y1="594.89" x2="130.26" y2="628.7"/><polygon points="127.77 595.62 130.26 591.3 132.75 595.62 127.77 595.62"/><line class="cls-9" x1="160.23" y1="468.89" x2="160.23" y2="502.7"/><polygon points="157.74 469.62 160.24 465.3 162.73 469.62 157.74 469.62"/><line class="cls-9" x1="217.67" y1="398.58" x2="217.67" y2="432.39"/><polygon points="215.17 399.31 217.67 395 220.16 399.31 215.17 399.31"/><line class="cls-9" x1="333.9" y1="328.28" x2="333.9" y2="362.08"/><polygon points="331.41 329.01 333.9 324.69 336.39 329.01 331.41 329.01"/><line class="cls-9" x1="567.73" y1="257.97" x2="567.73" y2="291.77"/><polygon points="565.24 258.7 567.74 254.38 570.23 258.7 565.24 258.7"/><line class="cls-9" x1="1030.81" y1="187.64" x2="1030.81" y2="221.45"/><polygon points="1028.32 188.37 1030.81 184.05 1033.3 188.37 1028.32 188.37"/><line class="cls-9" x1="2897.62" y1="187.64" x2="2897.62" y2="221.45"/><polygon points="2895.13 188.37 2897.62 184.05 2900.11 188.37 2895.13 188.37"/><line class="cls-9" x1="1963.48" y1="126.16" x2="1963.48" y2="159.97"/><polygon points="1960.99 126.89 1963.48 122.58 1965.98 126.89 1960.99 126.89"/><line class="cls-9" x1="1497" y1="257.97" x2="1497" y2="291.77"/><polygon points="1494.51 258.7 1497 254.38 1499.49 258.7 1494.51 258.7"/><line class="cls-9" x1="2430.6" y1="257.97" x2="2430.6" y2="291.77"/><polygon points="2428.11 258.7 2430.6 254.38 2433.09 258.7 2428.11 258.7"/><line class="cls-9" x1="3363.16" y1="257.97" x2="3363.16" y2="291.77"/><polygon points="3360.67 258.7 3363.16 254.38 3365.65 258.7 3360.67 258.7"/><line class="cls-9" x1="798.5" y1="328.28" x2="798.5" y2="362.08"/><polygon points="796.01 329.01 798.5 324.69 800.99 329.01 796.01 329.01"/><line class="cls-9" x1="1261.68" y1="328.28" x2="1261.68" y2="362.08"/><polygon points="1259.19 329.01 1261.68 324.69 1264.17 329.01 1259.19 329.01"/><line class="cls-9" x1="1727.28" y1="328.28" x2="1727.28" y2="362.08"/><polygon points="1724.79 329.01 1727.28 324.69 1729.77 329.01 1724.79 329.01"/><line class="cls-9" x1="2196.93" y1="328.28" x2="2196.93" y2="362.08"/><polygon points="2194.44 329.01 2196.93 324.69 2199.43 329.01 2194.44 329.01"/><line class="cls-9" x1="2661.53" y1="328.28" x2="2661.53" y2="362.08"/><polygon points="2659.04 329.01 2661.53 324.69 2664.02 329.01 2659.04 329.01"/><line class="cls-9" x1="3125.71" y1="328.28" x2="3125.71" y2="362.08"/><polygon points="3123.22 329.01 3125.71 324.69 3128.2 329.01 3123.22 329.01"/><line class="cls-9" x1="3593.31" y1="328.28" x2="3593.31" y2="362.08"/><polygon points="3590.82 329.01 3593.31 324.69 3595.8 329.01 3590.82 329.01"/><line class="cls-9" x1="452" y1="398.58" x2="452" y2="432.39"/><polygon points="449.5 399.31 452 395 454.49 399.31 449.5 399.31"/><line class="cls-9" x1="686.5" y1="398.58" x2="686.5" y2="432.39"/><polygon points="684.01 399.31 686.5 395 688.99 399.31 684.01 399.31"/><line class="cls-9" x1="917.5" y1="398.58" x2="917.5" y2="432.39"/><polygon points="915 399.31 917.5 395 919.99 399.31 915 399.31"/><line class="cls-9" x1="1145" y1="398.58" x2="1145" y2="432.39"/><polygon points="1142.51 399.31 1145 395 1147.49 399.31 1142.51 399.31"/><line class="cls-9" x1="1380" y1="398.58" x2="1380" y2="432.39"/><polygon points="1377.5 399.31 1380 395 1382.49 399.31 1377.5 399.31"/><line class="cls-9" x1="1611.67" y1="398.58" x2="1611.67" y2="432.39"/><polygon points="1609.17 399.31 1611.67 395 1614.16 399.31 1609.17 399.31"/><line class="cls-9" x1="1842" y1="398.58" x2="1842" y2="432.39"/><polygon points="1839.5 399.31 1842 395 1844.49 399.31 1839.5 399.31"/><line class="cls-9" x1="2081" y1="398.58" x2="2081" y2="432.39"/><polygon points="2078.51 399.31 2081 395 2083.49 399.31 2078.51 399.31"/><line class="cls-9" x1="2309.67" y1="398.58" x2="2309.67" y2="432.39"/><polygon points="2307.17 399.31 2309.67 395 2312.16 399.31 2307.17 399.31"/><line class="cls-9" x1="2546.14" y1="398.58" x2="2546.14" y2="432.39"/><polygon points="2543.65 399.31 2546.14 395 2548.64 399.31 2543.65 399.31"/><line class="cls-9" x1="2777.14" y1="398.58" x2="2777.14" y2="432.39"/><polygon points="2774.65 399.31 2777.14 395 2779.63 399.31 2774.65 399.31"/><line class="cls-9" x1="3014" y1="398.58" x2="3014" y2="432.39"/><polygon points="3011.51 399.31 3014 395 3016.49 399.31 3011.51 399.31"/><line class="cls-9" x1="3242.33" y1="398.58" x2="3242.33" y2="432.39"/><polygon points="3239.84 399.31 3242.33 395 3244.83 399.31 3239.84 399.31"/><line class="cls-9" x1="3477" y1="398.58" x2="3477" y2="432.39"/><polygon points="3474.51 399.31 3477 395 3479.49 399.31 3474.51 399.31"/><line class="cls-9" x1="3709.66" y1="398.58" x2="3709.66" y2="432.39"/><polygon points="3707.16 399.31 3709.66 395 3712.15 399.31 3707.16 399.31"/><line class="cls-9" x1="276.26" y1="468.89" x2="276.26" y2="502.7"/><polygon points="273.77 469.62 276.26 465.3 278.75 469.62 273.77 469.62"/><line class="cls-9" x1="391.26" y1="468.89" x2="391.26" y2="502.7"/><polygon points="388.76 469.62 391.26 465.3 393.75 469.62 388.76 469.62"/><line class="cls-9" x1="507.26" y1="468.89" x2="507.26" y2="502.7"/><polygon points="504.77 469.62 507.26 465.3 509.75 469.62 504.77 469.62"/><line class="cls-9" x1="625.76" y1="468.89" x2="625.76" y2="502.7"/><polygon points="623.27 469.62 625.76 465.3 628.25 469.62 623.27 469.62"/><line class="cls-9" x1="741.76" y1="468.89" x2="741.76" y2="502.7"/><polygon points="739.27 469.62 741.76 465.3 744.25 469.62 739.27 469.62"/><line class="cls-9" x1="856.76" y1="468.89" x2="856.76" y2="502.7"/><polygon points="854.26 469.62 856.76 465.3 859.25 469.62 854.26 469.62"/><line class="cls-9" x1="972.76" y1="468.89" x2="972.76" y2="502.7"/><polygon points="970.27 469.62 972.76 465.3 975.25 469.62 970.27 469.62"/><line class="cls-9" x1="1088.26" y1="469.39" x2="1088.26" y2="503.2"/><polygon points="1085.77 470.12 1088.26 465.8 1090.75 470.12 1085.77 470.12"/><line class="cls-9" x1="1204.26" y1="469.39" x2="1204.26" y2="503.2"/><polygon points="1201.77 470.12 1204.26 465.8 1206.75 470.12 1201.77 470.12"/><line class="cls-9" x1="1319.26" y1="470.02" x2="1319.26" y2="503.83"/><polygon points="1316.77 470.75 1319.26 466.43 1321.75 470.75 1316.77 470.75"/><line class="cls-9" x1="1433.59" y1="469.39" x2="1433.59" y2="503.2"/><polygon points="1431.1 470.12 1433.59 465.8 1436.09 470.12 1431.1 470.12"/><line class="cls-9" x1="1553" y1="469.39" x2="1553" y2="503.2"/><polygon points="1550.51 470.12 1553 465.8 1555.49 470.12 1550.51 470.12"/><line class="cls-9" x1="1668.1" y1="469.39" x2="1668.1" y2="503.2"/><polygon points="1665.61 470.12 1668.1 465.8 1670.59 470.12 1665.61 470.12"/><line class="cls-9" x1="1786.26" y1="469.39" x2="1786.26" y2="503.2"/><polygon points="1783.76 470.12 1786.26 465.8 1788.75 470.12 1783.76 470.12"/><line class="cls-9" x1="1902.26" y1="469.39" x2="1902.26" y2="503.2"/><polygon points="1899.77 470.12 1902.26 465.8 1904.75 470.12 1899.77 470.12"/><line class="cls-9" x1="2023.11" y1="469.39" x2="2023.11" y2="503.2"/><polygon points="2020.62 470.12 2023.11 465.8 2025.6 470.12 2020.62 470.12"/><line class="cls-9" x1="2138.11" y1="469.39" x2="2138.11" y2="503.2"/><polygon points="2135.62 470.12 2138.11 465.8 2140.6 470.12 2135.62 470.12"/><line class="cls-9" x1="2254.11" y1="469.39" x2="2254.11" y2="503.2"/><polygon points="2251.61 470.12 2254.11 465.8 2256.6 470.12 2251.61 470.12"/><line class="cls-9" x1="2370.11" y1="469.39" x2="2370.11" y2="503.2"/><polygon points="2367.62 470.12 2370.11 465.8 2372.6 470.12 2367.62 470.12"/><line class="cls-9" x1="2488.4" y1="469.39" x2="2488.4" y2="503.2"/><polygon points="2485.91 470.12 2488.4 465.8 2490.9 470.12 2485.91 470.12"/><line class="cls-9" x1="2604.4" y1="469.39" x2="2604.4" y2="503.2"/><polygon points="2601.91 470.12 2604.4 465.8 2606.9 470.12 2601.91 470.12"/><line class="cls-9" x1="2719.4" y1="469.39" x2="2719.4" y2="503.2"/><polygon points="2716.91 470.12 2719.4 465.8 2721.89 470.12 2716.91 470.12"/><line class="cls-9" x1="2835.4" y1="469.39" x2="2835.4" y2="503.2"/><polygon points="2832.91 470.12 2835.4 465.8 2837.9 470.12 2832.91 470.12"/><line class="cls-9" x1="2954.42" y1="469.39" x2="2954.42" y2="503.2"/><polygon points="2951.93 470.12 2954.42 465.8 2956.91 470.12 2951.93 470.12"/><line class="cls-9" x1="3067.26" y1="469.39" x2="3067.26" y2="503.2"/><polygon points="3064.76 470.12 3067.26 465.8 3069.75 470.12 3064.76 470.12"/><line class="cls-9" x1="3183.33" y1="469.39" x2="3183.33" y2="503.2"/><polygon points="3180.84 470.12 3183.33 465.8 3185.83 470.12 3180.84 470.12"/><line class="cls-9" x1="3300.42" y1="469.39" x2="3300.42" y2="503.2"/><polygon points="3297.93 470.12 3300.42 465.8 3302.91 470.12 3297.93 470.12"/><line class="cls-9" x1="3418.92" y1="469.39" x2="3418.92" y2="503.2"/><polygon points="3416.43 470.12 3418.92 465.8 3421.41 470.12 3416.43 470.12"/><line class="cls-9" x1="3535.92" y1="469.39" x2="3535.92" y2="503.2"/><polygon points="3533.43 470.12 3535.92 465.8 3538.41 470.12 3533.43 470.12"/><line class="cls-9" x1="3766.92" y1="469.39" x2="3766.92" y2="503.2"/><polygon points="3764.43 470.12 3766.92 465.8 3769.41 470.12 3764.43 470.12"/><line class="cls-9" x1="3651.92" y1="469.39" x2="3651.92" y2="503.2"/><polygon points="3649.43 470.12 3651.92 465.8 3654.41 470.12 3649.43 470.12"/><line class="cls-9" x1="188.26" y1="594.89" x2="188.26" y2="628.7"/><polygon points="185.77 595.62 188.26 591.3 190.75 595.62 185.77 595.62"/><line class="cls-9" x1="247.26" y1="594.89" x2="247.26" y2="628.7"/><polygon points="244.77 595.62 247.26 591.3 249.75 595.62 244.77 595.62"/><line class="cls-9" x1="305.26" y1="594.89" x2="305.26" y2="628.7"/><polygon points="302.77 595.62 305.26 591.3 307.75 595.62 302.77 595.62"/><line class="cls-9" x1="361.26" y1="594.89" x2="361.26" y2="628.7"/><polygon points="358.76 595.62 361.26 591.3 363.75 595.62 358.76 595.62"/><line class="cls-9" x1="419.26" y1="594.89" x2="419.26" y2="628.7"/><polygon points="416.76 595.62 419.26 591.3 421.75 595.62 416.76 595.62"/><line class="cls-9" x1="478.26" y1="594.89" x2="478.26" y2="628.7"/><polygon points="475.76 595.62 478.26 591.3 480.75 595.62 475.76 595.62"/><line class="cls-9" x1="536.26" y1="594.89" x2="536.26" y2="628.7"/><polygon points="533.76 595.62 536.26 591.3 538.75 595.62 533.76 595.62"/><line class="cls-9" x1="599.5" y1="594.89" x2="599.5" y2="628.7"/><polygon points="597.01 595.62 599.5 591.3 602 595.62 597.01 595.62"/><line class="cls-9" x1="657.5" y1="594.89" x2="657.5" y2="628.7"/><polygon points="655.01 595.62 657.5 591.3 660 595.62 655.01 595.62"/><line class="cls-9" x1="716.5" y1="594.89" x2="716.5" y2="628.7"/><polygon points="714.01 595.62 716.5 591.3 718.99 595.62 714.01 595.62"/><line class="cls-9" x1="774.5" y1="594.89" x2="774.5" y2="628.7"/><polygon points="772.01 595.62 774.5 591.3 776.99 595.62 772.01 595.62"/><line class="cls-9" x1="830.5" y1="594.89" x2="830.5" y2="628.7"/><polygon points="828 595.62 830.5 591.3 832.99 595.62 828 595.62"/><line class="cls-9" x1="888.5" y1="594.89" x2="888.5" y2="628.7"/><polygon points="886 595.62 888.5 591.3 890.99 595.62 886 595.62"/><line class="cls-9" x1="947.5" y1="594.89" x2="947.5" y2="628.7"/><polygon points="945 595.62 947.5 591.3 949.99 595.62 945 595.62"/><line class="cls-9" x1="1005.5" y1="594.89" x2="1005.5" y2="628.7"/><polygon points="1003 595.62 1005.5 591.3 1007.99 595.62 1003 595.62"/><line class="cls-9" x1="1060.5" y1="594.89" x2="1060.5" y2="628.7"/><polygon points="1058 595.62 1060.5 591.3 1062.99 595.62 1058 595.62"/><line class="cls-9" x1="1118.5" y1="594.89" x2="1118.5" y2="628.7"/><polygon points="1116 595.62 1118.5 591.3 1120.99 595.62 1116 595.62"/><line class="cls-9" x1="1177.5" y1="594.89" x2="1177.5" y2="628.7"/><polygon points="1175 595.62 1177.49 591.3 1179.99 595.62 1175 595.62"/><line class="cls-9" x1="1235.5" y1="594.89" x2="1235.5" y2="628.7"/><polygon points="1233 595.62 1235.5 591.3 1237.99 595.62 1233 595.62"/><line class="cls-9" x1="1291.49" y1="594.89" x2="1291.49" y2="628.7"/><polygon points="1289 595.62 1291.49 591.3 1293.99 595.62 1289 595.62"/><line class="cls-9" x1="1349.49" y1="594.89" x2="1349.49" y2="628.7"/><polygon points="1347 595.62 1349.49 591.3 1351.99 595.62 1347 595.62"/><line class="cls-9" x1="1408.49" y1="594.89" x2="1408.49" y2="628.7"/><polygon points="1406 595.62 1408.49 591.3 1410.98 595.62 1406 595.62"/><line class="cls-9" x1="1466.49" y1="594.89" x2="1466.49" y2="628.7"/><polygon points="1464 595.62 1466.49 591.3 1468.99 595.62 1464 595.62"/><line class="cls-9" x1="1525.49" y1="594.89" x2="1525.49" y2="628.7"/><polygon points="1523 595.62 1525.49 591.3 1527.98 595.62 1523 595.62"/><line class="cls-9" x1="1583.49" y1="594.89" x2="1583.49" y2="628.7"/><polygon points="1581 595.62 1583.49 591.3 1585.98 595.62 1581 595.62"/><line class="cls-9" x1="1642.49" y1="594.89" x2="1642.49" y2="628.7"/><polygon points="1640 595.62 1642.49 591.3 1644.98 595.62 1640 595.62"/><line class="cls-9" x1="1700.49" y1="594.89" x2="1700.49" y2="628.7"/><polygon points="1698 595.62 1700.49 591.3 1702.98 595.62 1698 595.62"/><line class="cls-9" x1="1756.49" y1="594.89" x2="1756.49" y2="628.7"/><polygon points="1753.99 595.62 1756.49 591.3 1758.98 595.62 1753.99 595.62"/><line class="cls-9" x1="1814.49" y1="594.89" x2="1814.49" y2="628.7"/><polygon points="1812 595.62 1814.49 591.3 1816.98 595.62 1812 595.62"/><line class="cls-9" x1="1873.49" y1="594.89" x2="1873.49" y2="628.7"/><polygon points="1870.99 595.62 1873.49 591.3 1875.98 595.62 1870.99 595.62"/><line class="cls-9" x1="1931.49" y1="594.89" x2="1931.49" y2="628.7"/><polygon points="1928.99 595.62 1931.49 591.3 1933.98 595.62 1928.99 595.62"/><line class="cls-9" x1="1994.34" y1="594.89" x2="1994.34" y2="628.7"/><polygon points="1991.84 595.62 1994.34 591.3 1996.83 595.62 1991.84 595.62"/><line class="cls-9" x1="2052.34" y1="594.89" x2="2052.34" y2="628.7"/><polygon points="2049.84 595.62 2052.34 591.3 2054.83 595.62 2049.84 595.62"/><line class="cls-9" x1="2111.34" y1="594.89" x2="2111.34" y2="628.7"/><polygon points="2108.84 595.62 2111.34 591.3 2113.83 595.62 2108.84 595.62"/><line class="cls-9" x1="2169.34" y1="594.89" x2="2169.34" y2="628.7"/><polygon points="2166.84 595.62 2169.34 591.3 2171.83 595.62 2166.84 595.62"/><line class="cls-9" x1="2225.33" y1="594.89" x2="2225.33" y2="628.7"/><polygon points="2222.84 595.62 2225.33 591.3 2227.83 595.62 2222.84 595.62"/><line class="cls-9" x1="2283.33" y1="594.89" x2="2283.33" y2="628.7"/><polygon points="2280.84 595.62 2283.33 591.3 2285.83 595.62 2280.84 595.62"/><line class="cls-9" x1="2342.33" y1="594.89" x2="2342.33" y2="628.7"/><polygon points="2339.84 595.62 2342.33 591.3 2344.83 595.62 2339.84 595.62"/><line class="cls-9" x1="2400.33" y1="594.89" x2="2400.33" y2="628.7"/><polygon points="2397.84 595.62 2400.33 591.3 2402.83 595.62 2397.84 595.62"/><line class="cls-9" x1="2462.14" y1="594.89" x2="2462.14" y2="628.7"/><polygon points="2459.65 595.62 2462.14 591.3 2464.64 595.62 2459.65 595.62"/><line class="cls-9" x1="2520.14" y1="594.89" x2="2520.14" y2="628.7"/><polygon points="2517.65 595.62 2520.14 591.3 2522.64 595.62 2517.65 595.62"/><line class="cls-9" x1="2579.14" y1="594.89" x2="2579.14" y2="628.7"/><polygon points="2576.65 595.62 2579.14 591.3 2581.64 595.62 2576.65 595.62"/><line class="cls-9" x1="2637.14" y1="594.89" x2="2637.14" y2="628.7"/><polygon points="2634.65 595.62 2637.14 591.3 2639.64 595.62 2634.65 595.62"/><line class="cls-9" x1="2693.14" y1="594.89" x2="2693.14" y2="628.7"/><polygon points="2690.65 595.62 2693.14 591.3 2695.63 595.62 2690.65 595.62"/><line class="cls-9" x1="2751.14" y1="594.89" x2="2751.14" y2="628.7"/><polygon points="2748.65 595.62 2751.14 591.3 2753.64 595.62 2748.65 595.62"/><line class="cls-9" x1="2810.14" y1="594.89" x2="2810.14" y2="628.7"/><polygon points="2807.65 595.62 2810.14 591.3 2812.63 595.62 2807.65 595.62"/><line class="cls-9" x1="2868.14" y1="594.89" x2="2868.14" y2="628.7"/><polygon points="2865.65 595.62 2868.14 591.3 2870.63 595.62 2865.65 595.62"/><line class="cls-9" x1="2923.14" y1="594.89" x2="2923.14" y2="628.7"/><polygon points="2920.65 595.62 2923.14 591.3 2925.63 595.62 2920.65 595.62"/><line class="cls-9" x1="2981.14" y1="594.89" x2="2981.14" y2="628.7"/><polygon points="2978.65 595.62 2981.14 591.3 2983.63 595.62 2978.65 595.62"/><line class="cls-9" x1="3040.14" y1="594.89" x2="3040.14" y2="628.7"/><polygon points="3037.64 595.62 3040.14 591.3 3042.63 595.62 3037.64 595.62"/><line class="cls-9" x1="3098.14" y1="594.89" x2="3098.14" y2="628.7"/><polygon points="3095.65 595.62 3098.14 591.3 3100.63 595.62 3095.65 595.62"/><line class="cls-9" x1="3154.14" y1="594.89" x2="3154.14" y2="628.7"/><polygon points="3151.64 595.62 3154.14 591.3 3156.63 595.62 3151.64 595.62"/><line class="cls-9" x1="3212.14" y1="594.89" x2="3212.14" y2="628.7"/><polygon points="3209.64 595.62 3212.14 591.3 3214.63 595.62 3209.64 595.62"/><line class="cls-9" x1="3271.14" y1="594.89" x2="3271.14" y2="628.7"/><polygon points="3268.64 595.62 3271.14 591.3 3273.63 595.62 3268.64 595.62"/><line class="cls-9" x1="3329.14" y1="594.89" x2="3329.14" y2="628.7"/><polygon points="3326.64 595.62 3329.14 591.3 3331.63 595.62 3326.64 595.62"/><line class="cls-9" x1="3394.66" y1="594.89" x2="3394.66" y2="628.7"/><polygon points="3392.17 595.62 3394.66 591.3 3397.16 595.62 3392.17 595.62"/><line class="cls-9" x1="3452.66" y1="594.89" x2="3452.66" y2="628.7"/><polygon points="3450.17 595.62 3452.66 591.3 3455.16 595.62 3450.17 595.62"/><line class="cls-9" x1="3511.66" y1="594.89" x2="3511.66" y2="628.7"/><polygon points="3509.17 595.62 3511.66 591.3 3514.16 595.62 3509.17 595.62"/><line class="cls-9" x1="3569.66" y1="594.89" x2="3569.66" y2="628.7"/><polygon points="3567.17 595.62 3569.66 591.3 3572.16 595.62 3567.17 595.62"/><line class="cls-9" x1="3625.66" y1="594.89" x2="3625.66" y2="628.7"/><polygon points="3623.17 595.62 3625.66 591.3 3628.15 595.62 3623.17 595.62"/><line class="cls-9" x1="3683.66" y1="594.89" x2="3683.66" y2="628.7"/><polygon points="3681.17 595.62 3683.66 591.3 3686.15 595.62 3681.17 595.62"/><line class="cls-9" x1="3742.66" y1="594.89" x2="3742.66" y2="628.7"/><polygon points="3740.16 595.62 3742.66 591.3 3745.15 595.62 3740.16 595.62"/><line class="cls-9" x1="3800.66" y1="594.89" x2="3800.66" y2="628.7"/><polygon points="3798.16 595.62 3800.66 591.3 3803.15 595.62 3798.16 595.62"/></g><g id="line"><polyline class="cls-9" points="105.14 645.5 105.14 649 562.67 649 562.67 645.5"/><polyline class="cls-9" points="108.14 522.34 108.14 524.67 212.33 524.67 212.33 522.34"/><polyline class="cls-9" points="126.48 452.76 126.48 454.36 308.85 454.36 308.85 452.76"/><polyline class="cls-9" points="161.49 382.45 161.49 384.05 510.01 384.05 510.01 382.45"/><polyline class="cls-9" points="240.49 312.15 240.49 313.75 899.01 313.75 899.01 312.15"/><polyline class="cls-9" points="390.36 241.84 390.36 243.44 1671.26 243.44 1671.26 241.84"/><polyline class="cls-9" points="856.55 172.96 856.55 175.3 3070.42 175.3 3070.42 172.96"/><polyline class="cls-9" points="2257.17 241.84 2257.17 243.44 3538.07 243.44 3538.07 241.84"/><polyline class="cls-9" points="1169.73 312.15 1169.73 313.75 1828.26 313.75 1828.26 312.15"/><polyline class="cls-9" points="2101.34 312.15 2101.34 313.75 2759.87 313.75 2759.87 312.15"/><polyline class="cls-9" points="3031.21 312.15 3031.21 313.75 3689.74 313.75 3689.74 312.15"/><polyline class="cls-9" points="624.24 382.45 624.24 384.05 972.76 384.05 972.76 382.45"/><polyline class="cls-9" points="1087.41 382.45 1087.41 384.05 1435.94 384.05 1435.94 382.45"/><polyline class="cls-9" points="1557.73 382.45 1557.73 384.05 1906.26 384.05 1906.26 382.45"/><polyline class="cls-9" points="2027.74 382.45 2027.74 384.05 2376.28 384.05 2376.28 382.45"/><polyline class="cls-9" points="2487.27 383.25 2487.27 384.85 2835.8 384.85 2835.8 383.25"/><polyline class="cls-9" points="2952.45 383.25 2952.45 384.85 3300.98 384.85 3300.98 383.25"/><polyline class="cls-9" points="3421.05 383.25 3421.05 384.85 3769.57 384.85 3769.57 383.25"/><polyline class="cls-9" points="360.81 452.76 360.81 454.36 543.18 454.36 543.18 452.76"/><polyline class="cls-9" points="595.32 452.76 595.32 454.36 777.68 454.36 777.68 452.76"/><polyline class="cls-9" points="826.32 452.76 826.32 454.36 1008.68 454.36 1008.68 452.76"/><polyline class="cls-9" points="1057.82 452.76 1057.82 454.36 1240.18 454.36 1240.18 452.76"/><polyline class="cls-9" points="1288.82 452.76 1288.82 454.36 1471.18 454.36 1471.18 452.76"/><polyline class="cls-9" points="1524.82 452.76 1524.82 454.36 1707.18 454.36 1707.18 452.76"/><polyline class="cls-9" points="1755.82 452.76 1755.82 454.36 1938.18 454.36 1938.18 452.76"/><polyline class="cls-9" points="1992.67 452.76 1992.67 454.36 2175.03 454.36 2175.03 452.76"/><polyline class="cls-9" points="2223.67 452.76 2223.67 454.36 2406.03 454.36 2406.03 452.76"/><polyline class="cls-9" points="2457.96 452.76 2457.96 454.36 2640.32 454.36 2640.32 452.76"/><polyline class="cls-9" points="2688.96 452.76 2688.96 454.36 2871.32 454.36 2871.32 452.76"/><polyline class="cls-9" points="2923.98 452.76 2923.98 454.36 3106.34 454.36 3106.34 452.76"/><polyline class="cls-9" points="3154.97 452.76 3154.97 454.36 3337.34 454.36 3337.34 452.76"/><polyline class="cls-9" points="3390.48 452.76 3390.48 454.36 3572.84 454.36 3572.84 452.76"/><polyline class="cls-9" points="3621.48 452.76 3621.48 454.36 3803.84 454.36 3803.84 452.76"/><polyline class="cls-9" points="224.16 522.34 224.16 524.67 328.36 524.67 328.36 522.34"/><polyline class="cls-9" points="339.16 522.34 339.16 524.67 443.36 524.67 443.36 522.34"/><polyline class="cls-9" points="455.16 522.34 455.16 524.67 559.36 524.67 559.36 522.34"/><polyline class="cls-9" points="573.66 522.67 573.66 525 677.86 525 677.86 522.67"/><polyline class="cls-9" points="689.66 522.67 689.66 525 793.86 525 793.86 522.67"/><polyline class="cls-9" points="804.66 522.67 804.66 525 908.86 525 908.86 522.67"/><polyline class="cls-9" points="920.66 522.67 920.66 525 1024.86 525 1024.86 522.67"/><polyline class="cls-9" points="1036.16 522.67 1036.16 525 1140.36 525 1140.36 522.67"/><polyline class="cls-9" points="1152.16 522.67 1152.16 525 1256.36 525 1256.36 522.67"/><polyline class="cls-9" points="1267.16 522.67 1267.16 525 1371.36 525 1371.36 522.67"/><polyline class="cls-9" points="1381.49 522.67 1381.49 525 1485.69 525 1485.69 522.67"/><polyline class="cls-9" points="1503.16 522.67 1503.16 525 1607.36 525 1607.36 522.67"/><polyline class="cls-9" points="1616 522.67 1616 525 1720.2 525 1720.2 522.67"/><polyline class="cls-9" points="1734.16 522.67 1734.16 525 1838.36 525 1838.36 522.67"/><polyline class="cls-9" points="1850.16 522.67 1850.16 525 1954.36 525 1954.36 522.67"/><polyline class="cls-9" points="1971.01 522.67 1971.01 525 2075.21 525 2075.21 522.67"/><polyline class="cls-9" points="2087.01 522.67 2087.01 525 2191.21 525 2191.21 522.67"/><polyline class="cls-9" points="2202.01 522.67 2202.01 525 2306.21 525 2306.21 522.67"/><polyline class="cls-9" points="2318.01 522.67 2318.01 525 2422.21 525 2422.21 522.67"/><polyline class="cls-9" points="2436.3 522.67 2436.3 525 2540.5 525 2540.5 522.67"/><polyline class="cls-9" points="2552.3 522.67 2552.3 525 2656.5 525 2656.5 522.67"/><polyline class="cls-9" points="2667.3 522.67 2667.3 525 2771.5 525 2771.5 522.67"/><polyline class="cls-9" points="2783.3 522.67 2783.3 525 2887.5 525 2887.5 522.67"/><polyline class="cls-9" points="2902.32 522.67 2902.32 525 3006.52 525 3006.52 522.67"/><polyline class="cls-9" points="3015.16 522.67 3015.16 525 3119.36 525 3119.36 522.67"/><polyline class="cls-9" points="3133.32 522.67 3133.32 525 3237.52 525 3237.52 522.67"/><polyline class="cls-9" points="3249.32 522.67 3249.32 525 3353.52 525 3353.52 522.67"/><polyline class="cls-9" points="3368.82 522.67 3368.82 525 3473.02 525 3473.02 522.67"/><polyline class="cls-9" points="3484.82 522.67 3484.82 525 3589.02 525 3589.02 522.67"/><polyline class="cls-9" points="3599.82 522.67 3599.82 525 3704.02 525 3704.02 522.67"/><polyline class="cls-9" points="3714.82 522.67 3714.82 525 3819.02 525 3819.02 522.67"/><polyline class="cls-9" points="568.74 645.5 568.74 649 1026.27 649 1026.27 645.5"/><polyline class="cls-9" points="1032.91 645.5 1032.91 649 1490.45 649 1490.45 645.5"/><polyline class="cls-9" points="1498.51 645.5 1498.51 649 1956.04 649 1956.04 645.5"/><polyline class="cls-9" points="1965.17 645.5 1965.17 649 2422.7 649 2422.7 645.5"/><polyline class="cls-9" points="2432.76 645.5 2432.76 649 2890.3 649 2890.3 645.5"/><polyline class="cls-9" points="2897.95 645.5 2897.95 649 3355.48 649 3355.48 645.5"/><polyline class="cls-9" points="3364.16 645.5 3364.16 649 3821.69 649 3821.69 645.5"/></g></svg>