<svg id="Flow_Chart" data-name="Flow Chart" xmlns="http://www.w3.org/2000/svg" viewBox="0 0 1728 720"><defs><style>.cls-1{opacity:0.3;}.cls-2{fill:#fff4de;}.cls-3{fill:#b5cde3;}.cls-4{fill:#ded2df;}.cls-10,.cls-11,.cls-5,.cls-6,.cls-7,.cls-8,.cls-9{fill:none;stroke:#000;stroke-miterlimit:10;}.cls-10,.cls-11,.cls-6,.cls-7,.cls-8,.cls-9{stroke-width:0.5px;}.cls-7{stroke-dasharray:4 4;}.cls-8{stroke-dasharray:3.97 3.97;}.cls-9{stroke-dasharray:4.02 4.02;}.cls-10{stroke-dasharray:3.92 3.92;}.cls-11{stroke-dasharray:4.06 4.06;}.cls-12{font-size:16px;}.cls-12,.cls-13{font-family:Mission Gothic;}.cls-13{font-size:12px;}.cls-14{letter-spacing:31px;}.cls-15{letter-spacing:30px;}</style></defs><title>StateFlowDiagram</title><g id="color" class="cls-1"><rect class="cls-2" x="176" y="449.21" width="144" height="72" rx="11.28" ry="11.28"/><rect class="cls-2" x="408" y="377.21" width="144" height="72" rx="11.28" ry="11.28"/><rect class="cls-2" x="408" y="522.21" width="144" height="72" rx="11.28" ry="11.28"/><rect class="cls-3" x="640" y="377.21" width="144" height="72" rx="11.28" ry="11.28"/><rect class="cls-4" x="872" y="377.21" width="144" height="72" rx="11.28" ry="11.28"/><rect class="cls-4" x="872" y="269.21" width="144" height="72" rx="11.28" ry="11.28"/><rect class="cls-4" x="872" y="485.21" width="144" height="72" rx="11.28" ry="11.28"/><rect class="cls-4" x="1154" y="197.21" width="144" height="72" rx="11.28" ry="11.28"/><rect class="cls-4" x="1154" y="341.21" width="144" height="72" rx="11.28" ry="11.28"/><rect class="cls-4" x="1387" y="126.21" width="144" height="72" rx="11.28" ry="11.28"/><rect class="cls-4" x="1387" y="269.21" width="144" height="72" rx="11.28" ry="11.28"/><rect class="cls-4" x="115" y="207.21" width="18" height="18"/><rect class="cls-2" x="115" y="161.21" width="18" height="18"/><rect class="cls-3" x="115" y="184.21" width="18" height="18"/></g><g id="boxes"><rect class="cls-5" x="176.5" y="449.71" width="144" height="72" rx="11.28" ry="11.28"/><rect class="cls-5" x="408.5" y="377.71" width="144" height="72" rx="11.28" ry="11.28"/><rect class="cls-5" x="408.5" y="521.71" width="144" height="72" rx="11.28" ry="11.28"/><rect class="cls-5" x="639.5" y="377.71" width="144" height="72" rx="11.28" ry="11.28"/><rect class="cls-5" x="871.5" y="377.71" width="144" height="72" rx="11.28" ry="11.28"/><rect class="cls-5" x="871.5" y="269.71" width="144" height="72" rx="11.28" ry="11.28"/><rect class="cls-5" x="871.5" y="485.71" width="144" height="72" rx="11.28" ry="11.28"/><rect class="cls-5" x="1153.5" y="197.71" width="144" height="72" rx="11.28" ry="11.28"/><rect class="cls-5" x="1153.5" y="341.71" width="144" height="72" rx="11.28" ry="11.28"/><rect class="cls-5" x="1387.5" y="125.71" width="144" height="72" rx="11.28" ry="11.28"/><rect class="cls-5" x="1387.5" y="268.71" width="144" height="72" rx="11.28" ry="11.28"/><line class="cls-6" x1="783.98" y1="414.59" x2="785.98" y2="414.59"/><line class="cls-7" x1="789.97" y1="414.59" x2="867.91" y2="414.59"/><line class="cls-6" x1="869.91" y1="414.59" x2="871.91" y2="414.59"/><line class="cls-6" x1="552.11" y1="414.59" x2="554.11" y2="414.59"/><line class="cls-7" x1="558.11" y1="414.59" x2="636.05" y2="414.59"/><line class="cls-6" x1="638.05" y1="414.59" x2="640.05" y2="414.59"/><rect class="cls-5" x="114.5" y="206.71" width="18" height="18"/><rect class="cls-5" x="114.5" y="160.71" width="18" height="18"/><rect class="cls-5" x="114.5" y="183.71" width="18" height="18"/></g><g id="dash"><line class="cls-6" x1="407.62" y1="414.6" x2="405.62" y2="414.6"/><path class="cls-8" d="M401.65,414.6H373.13a10,10,0,0,0-10,10v51.55a10,10,0,0,1-10,10H323.73"/><line class="cls-6" x1="321.75" y1="486.17" x2="319.75" y2="486.17"/><line class="cls-6" x1="407.62" y1="557.78" x2="405.62" y2="557.78"/><path class="cls-8" d="M401.65,557.78H373.13a10,10,0,0,1-10-10V496.22a10,10,0,0,0-10-10H323.73"/><line class="cls-6" x1="321.75" y1="486.21" x2="319.75" y2="486.21"/><line class="cls-6" x1="1387.14" y1="162.8" x2="1385.14" y2="162.8"/><path class="cls-8" d="M1381.17,162.8h-28.52a10,10,0,0,0-10,10v51.55a10,10,0,0,1-10,10h-29.38"/><line class="cls-6" x1="1301.27" y1="234.37" x2="1299.27" y2="234.37"/><line class="cls-6" x1="1387.14" y1="305.98" x2="1385.14" y2="305.98"/><path class="cls-8" d="M1381.17,306h-28.52a10,10,0,0,1-10-10V244.42a10,10,0,0,0-10-10h-29.38"/><line class="cls-6" x1="1301.27" y1="234.4" x2="1299.27" y2="234.4"/><line class="cls-6" x1="1153.78" y1="234.39" x2="1151.78" y2="234.39"/><path class="cls-9" d="M1147.76,234.39h-28.47a10,10,0,0,0-10,10v51.55a10,10,0,0,1-10,10h-79.35"/><line class="cls-6" x1="1017.91" y1="305.96" x2="1015.91" y2="305.96"/><line class="cls-6" x1="1153.78" y1="377.56" x2="1151.78" y2="377.56"/><path class="cls-9" d="M1147.76,377.56h-28.47a10,10,0,0,1-10-10V316a10,10,0,0,0-10-10h-79.35"/><line class="cls-6" x1="1017.91" y1="305.99" x2="1015.91" y2="305.99"/><line class="cls-6" x1="871.85" y1="305.49" x2="869.85" y2="305.49"/><path class="cls-10" d="M865.93,305.49H837.36a10,10,0,0,0-10,10v89.07a10,10,0,0,1-10,10h-29.4"/><line class="cls-6" x1="785.98" y1="414.59" x2="783.98" y2="414.59"/><line class="cls-6" x1="871.85" y1="521.99" x2="869.85" y2="521.99"/><path class="cls-11" d="M865.79,522H837.36a10,10,0,0,1-10-10V424.63a10,10,0,0,0-10-10H788"/><line class="cls-6" x1="785.98" y1="414.62" x2="783.98" y2="414.62"/></g><g id="arrow"><line class="cls-6" x1="610.33" y1="594.29" x2="563.62" y2="594.29"/><polygon points="609.6 591.79 613.92 594.29 609.6 596.78 609.6 591.79"/><line class="cls-6" x1="1065.33" y1="558.21" x2="1018.62" y2="558.21"/><polygon points="1064.6 555.71 1068.92 558.21 1064.6 560.7 1064.6 555.71"/><line class="cls-6" x1="1065.33" y1="499.95" x2="1018.62" y2="499.95"/><polygon points="1064.6 497.45 1068.92 499.95 1064.6 502.44 1064.6 497.45"/><line class="cls-6" x1="1348.67" y1="413.46" x2="1301.95" y2="413.46"/><polygon points="1347.94 410.96 1352.25 413.46 1347.94 415.95 1347.94 410.96"/><line class="cls-6" x1="1348.67" y1="356.78" x2="1301.95" y2="356.78"/><polygon points="1347.94 354.29 1352.25 356.78 1347.94 359.28 1347.94 354.29"/><line class="cls-6" x1="1065.33" y1="449.49" x2="1018.62" y2="449.49"/><polygon points="1064.6 447 1068.92 449.49 1064.6 451.99 1064.6 447"/><line class="cls-6" x1="1065.33" y1="391.99" x2="1018.62" y2="391.99"/><polygon points="1064.6 389.49 1068.92 391.99 1064.6 394.48 1064.6 389.49"/><line class="cls-6" x1="392.55" y1="392.32" x2="345.84" y2="392.32"/><polygon points="391.82 389.82 396.14 392.32 391.82 394.81 391.82 389.82"/><line class="cls-6" x1="392.41" y1="594.21" x2="358.61" y2="594.21"/><polygon points="391.68 591.71 396 594.21 391.68 596.7 391.68 591.71"/><line class="cls-6" x1="626.03" y1="391.97" x2="592.23" y2="391.97"/><polygon points="625.3 389.48 629.62 391.97 625.3 394.46 625.3 389.48"/><line class="cls-6" x1="626.03" y1="449.71" x2="592.23" y2="449.71"/><polygon points="625.3 447.21 629.62 449.71 625.3 452.2 625.3 447.21"/><line class="cls-6" x1="865.03" y1="499.78" x2="831.23" y2="499.78"/><polygon points="864.3 497.29 868.62 499.78 864.3 502.27 864.3 497.29"/><line class="cls-6" x1="865.03" y1="558.21" x2="831.23" y2="558.21"/><polygon points="864.3 555.71 868.62 558.21 864.3 560.7 864.3 555.71"/><line class="cls-6" x1="865.03" y1="392.32" x2="831.23" y2="392.32"/><polygon points="864.3 389.82 868.62 392.32 864.3 394.81 864.3 389.82"/><line class="cls-6" x1="865.03" y1="448.99" x2="831.23" y2="448.99"/><polygon points="864.3 446.5 868.62 448.99 864.3 451.49 864.3 446.5"/><line class="cls-6" x1="1147.11" y1="213.51" x2="1113.3" y2="213.51"/><polygon points="1146.38 211.02 1150.69 213.51 1146.38 216 1146.38 211.02"/><line class="cls-6" x1="1147.11" y1="269.21" x2="1113.3" y2="269.21"/><polygon points="1146.38 266.71 1150.69 269.21 1146.38 271.7 1146.38 266.71"/><line class="cls-6" x1="1147.11" y1="356.77" x2="1113.3" y2="356.77"/><polygon points="1146.38 354.28 1150.69 356.77 1146.38 359.27 1146.38 354.28"/><line class="cls-6" x1="1147.11" y1="413.45" x2="1113.3" y2="413.45"/><polygon points="1146.38 410.95 1150.69 413.45 1146.38 415.94 1146.38 410.95"/><line class="cls-6" x1="1581.77" y1="196.72" x2="1535.05" y2="196.72"/><polygon points="1581.04 194.23 1585.35 196.72 1581.04 199.22 1581.04 194.23"/><line class="cls-6" x1="1581.77" y1="141.14" x2="1535.05" y2="141.14"/><polygon points="1581.04 138.65 1585.35 141.14 1581.04 143.63 1581.04 138.65"/><line class="cls-6" x1="1581.77" y1="340.9" x2="1535.05" y2="340.9"/><polygon points="1581.04 338.41 1585.35 340.9 1581.04 343.39 1581.04 338.41"/><line class="cls-6" x1="1581.77" y1="284.22" x2="1535.05" y2="284.22"/><polygon points="1581.04 281.73 1585.35 284.23 1581.04 286.72 1581.04 281.73"/><line class="cls-6" x1="1380.44" y1="141.15" x2="1346.63" y2="141.15"/><polygon points="1379.71 138.66 1384.02 141.15 1379.71 143.64 1379.71 138.66"/><line class="cls-6" x1="1380.21" y1="196.71" x2="1346.4" y2="196.71"/><polygon points="1379.48 194.22 1383.8 196.71 1379.48 199.21 1379.48 194.22"/><line class="cls-6" x1="158.7" y1="486.21" x2="111.98" y2="486.21"/><polygon points="157.97 483.71 162.28 486.21 157.97 488.7 157.97 483.71"/><line class="cls-6" x1="129.41" y1="239.21" x2="115" y2="239.21"/><polygon points="128.69 236.71 133 239.21 128.69 241.7 128.69 236.71"/></g><g id="text"><text class="cls-12" transform="translate(201.1 490.44)">Propose Game</text><text class="cls-12" transform="translate(438.1 562.9)">Cancel Game</text><text class="cls-12" transform="translate(437.6 418.78)">Accept Game</text><text class="cls-12" transform="translate(670.61 418.78)">Game Active</text><text class="cls-12" transform="translate(895.69 418.78)">Concede Game</text><text class="cls-12" transform="translate(886.89 527.11)">Game Abandoned </text><text class="cls-12" transform="translate(889.36 311.45)">Pote<tspan x="29.6" y="0">n</tspan><tspan x="37.95" y="0">tial Victory</tspan></text><text class="cls-12" transform="translate(1164.86 238.78)">Victory Challenged</text><text class="cls-12" transform="translate(1403.17 310.88)">Victory Reversed</text><text class="cls-12" transform="translate(1408.77 168.04)">Victory Verified</text><text class="cls-12" transform="translate(1175.01 381.92)">Victory Claimed</text><text class="cls-13" transform="translate(576.16 588.15)">Player A<tspan class="cls-14" x="37.8" y="0">	</tspan></text><text class="cls-13" transform="translate(1031.16 552.07)">Player B<tspan class="cls-15" x="38.42" y="0">	</tspan></text><text class="cls-13" transform="translate(1031.16 493.81)">Player A<tspan class="cls-14" x="37.8" y="0">	</tspan></text><text class="cls-13" transform="translate(1314.49 407.32)">Player B<tspan class="cls-15" x="38.42" y="0">	</tspan></text><text class="cls-13" transform="translate(1314.49 350.64)">Player A<tspan class="cls-14" x="37.8" y="0">	</tspan></text><text class="cls-13" transform="translate(1031.16 443.35)">Player A<tspan class="cls-14" x="37.8" y="0">	</tspan></text><text class="cls-13" transform="translate(1031.16 385.85)">Player B<tspan class="cls-15" x="38.42" y="0">	</tspan></text><text class="cls-13" transform="translate(345.38 386.18)">Player B<tspan class="cls-15" x="38.42" y="0">	</tspan></text><text class="cls-13" transform="translate(358.15 588.07)">Player A<tspan class="cls-14" x="37.8" y="0">	</tspan></text><text class="cls-13" transform="translate(591.77 385.83)">Player A<tspan class="cls-14" x="37.8" y="0">	</tspan></text><text class="cls-13" transform="translate(591.77 443.57)">Player B<tspan class="cls-15" x="38.42" y="0">	</tspan></text><text class="cls-13" transform="translate(830.77 493.64)">Player A<tspan class="cls-14" x="37.8" y="0">	</tspan></text><text class="cls-13" transform="translate(830.77 552.07)">Player B<tspan class="cls-15" x="38.42" y="0">	</tspan></text><text class="cls-13" transform="translate(830.77 386.18)">Player A<tspan class="cls-14" x="37.8" y="0">	</tspan></text><text class="cls-13" transform="translate(830.77 442.85)">Player B<tspan class="cls-15" x="38.42" y="0">	</tspan></text><text class="cls-13" transform="translate(1112.84 207.37)">Player A<tspan class="cls-14" x="37.8" y="0">	</tspan></text><text class="cls-13" transform="translate(1112.84 263.07)">Player B<tspan class="cls-15" x="38.42" y="0">	</tspan></text><text class="cls-13" transform="translate(1112.84 350.63)">Player A<tspan class="cls-14" x="37.8" y="0">	</tspan></text><text class="cls-13" transform="translate(1112.84 407.31)">Player B<tspan class="cls-15" x="38.42" y="0">	</tspan></text><text class="cls-13" transform="translate(1547.59 190.58)">Player B<tspan class="cls-15" x="38.42" y="0">	</tspan></text><text class="cls-13" transform="translate(1547.59 135)">Player A<tspan class="cls-14" x="37.8" y="0">	</tspan></text><text class="cls-13" transform="translate(1547.59 334.76)">Player B<tspan class="cls-15" x="38.42" y="0">	</tspan></text><text class="cls-13" transform="translate(1547.59 278.08)">Player A<tspan class="cls-14" x="37.8" y="0">	</tspan></text><text class="cls-13" transform="translate(1346.17 135.01)">Player A<tspan class="cls-14" x="37.8" y="0">	</tspan></text><text class="cls-13" transform="translate(1345.94 190.57)">Player B<tspan class="cls-15" x="38.42" y="0">	</tspan></text><text class="cls-12" transform="translate(115 138.19)">GAME <tspan x="40.1" y="0">S</tspan><tspan x="47.6" y="0">T</tspan><tspan x="53.79" y="0">A</tspan><tspan x="61.3" y="0">TE DI</tspan><tspan x="93.42" y="0">A</tspan><tspan x="101.23" y="0">G</tspan><tspan x="110.06" y="0">R</tspan><tspan x="118.53" y="0">AM</tspan></text><text class="cls-13" transform="translate(111.52 480.07)">Player A<tspan class="cls-14" x="37.8" y="0">	</tspan></text><text class="cls-13" transform="translate(141.02 173.76)">Pre-Game State</text><text class="cls-13" transform="translate(141.02 196.76)">Active Game State</text><text class="cls-13" transform="translate(141.02 219.76)">Post-Game State</text><text class="cls-13" transform="translate(141.02 241.87)">Input/Output</text><text class="cls-13" transform="translate(141.02 262.54)">ETH T<tspan x="26.26" y="0">r</tspan><tspan x="29.96" y="0">ans</tspan><tspan x="47.12" y="0">f</tspan><tspan x="50.47" y="0">erred</tspan></text></g><g id="Ξ"><line class="cls-5" x1="564" y1="578.71" x2="571" y2="578.71"/><line class="cls-5" x1="564" y1="587.71" x2="571" y2="587.71"/><line class="cls-5" x1="570" y1="583.71" x2="565" y2="583.71"/><line class="cls-5" x1="1019" y1="542.71" x2="1026" y2="542.71"/><line class="cls-5" x1="1019" y1="551.71" x2="1026" y2="551.71"/><line class="cls-5" x1="1025" y1="547.71" x2="1020" y2="547.71"/><line class="cls-5" x1="1019" y1="484.71" x2="1026" y2="484.71"/><line class="cls-5" x1="1019" y1="493.71" x2="1026" y2="493.71"/><line class="cls-5" x1="1025" y1="488.71" x2="1020" y2="488.71"/><line class="cls-5" x1="1302" y1="398.71" x2="1309" y2="398.71"/><line class="cls-5" x1="1302" y1="406.71" x2="1309" y2="406.71"/><line class="cls-5" x1="1308" y1="402.71" x2="1303" y2="402.71"/><line class="cls-5" x1="1302" y1="341.71" x2="1309" y2="341.71"/><line class="cls-5" x1="1302" y1="350.71" x2="1309" y2="350.71"/><line class="cls-5" x1="1308" y1="345.71" x2="1303" y2="345.71"/><line class="cls-5" x1="1019" y1="434.71" x2="1026" y2="434.71"/><line class="cls-5" x1="1019" y1="442.71" x2="1026" y2="442.71"/><line class="cls-5" x1="1025" y1="438.71" x2="1020" y2="438.71"/><line class="cls-5" x1="1019" y1="376.71" x2="1026" y2="376.71"/><line class="cls-5" x1="1019" y1="385.71" x2="1026" y2="385.71"/><line class="cls-5" x1="1025" y1="381.71" x2="1020" y2="381.71"/><line class="cls-5" x1="389" y1="377.71" x2="396" y2="377.71"/><line class="cls-5" x1="389" y1="385.71" x2="396" y2="385.71"/><line class="cls-5" x1="395" y1="381.71" x2="390" y2="381.71"/><line class="cls-5" x1="1536" y1="181.71" x2="1542" y2="181.71"/><line class="cls-5" x1="1536" y1="190.71" x2="1542" y2="190.71"/><line class="cls-5" x1="1541" y1="185.71" x2="1536" y2="185.71"/><line class="cls-5" x1="1536" y1="125.71" x2="1542" y2="125.71"/><line class="cls-5" x1="1536" y1="134.71" x2="1542" y2="134.71"/><line class="cls-5" x1="1541" y1="130.71" x2="1536" y2="130.71"/><line class="cls-5" x1="1536" y1="325.71" x2="1542" y2="325.71"/><line class="cls-5" x1="1536" y1="334.71" x2="1542" y2="334.71"/><line class="cls-5" x1="1541" y1="329.71" x2="1536" y2="329.71"/><line class="cls-5" x1="1536" y1="268.71" x2="1542" y2="268.71"/><line class="cls-5" x1="1536" y1="277.71" x2="1542" y2="277.71"/><line class="cls-5" x1="1541" y1="273.71" x2="1536" y2="273.71"/><line class="cls-5" x1="155" y1="470.71" x2="162" y2="470.71"/><line class="cls-5" x1="155" y1="479.71" x2="162" y2="479.71"/><line class="cls-5" x1="161" y1="475.71" x2="156" y2="475.71"/><line class="cls-5" x1="120" y1="253.71" x2="127" y2="253.71"/><line class="cls-5" x1="120" y1="262.71" x2="127" y2="262.71"/><line class="cls-5" x1="126" y1="258.71" x2="121" y2="258.71"/></g></svg>