<svg id="Box_Diagrams" data-name="Box Diagrams" xmlns="http://www.w3.org/2000/svg" viewBox="0 0 1008 720"><defs><style>.cls-1{opacity:0.3;}.cls-2{fill:#f89d61;}.cls-2,.cls-3,.cls-4,.cls-6{stroke:#000;stroke-miterlimit:10;}.cls-2,.cls-4{stroke-width:1.05px;}.cls-3,.cls-4,.cls-6{fill:none;}.cls-5{font-size:16px;font-family:Mission Gothic;}.cls-6{stroke-width:2px;}</style></defs><title>StateFlowDiagram</title><g id="ships" class="cls-1"><rect class="cls-2" x="183.5" y="495" width="58" height="58" transform="translate(424.99 1048) rotate(-180)"/><rect class="cls-2" x="356.35" y="378" width="58" height="58" transform="translate(770.7 814) rotate(-180)"/><rect class="cls-2" x="356.35" y="204.85" width="58" height="58" transform="translate(770.7 467.71) rotate(-180)"/><rect class="cls-2" x="647.64" y="379" width="58" height="58" transform="translate(1353.29 816) rotate(-180)"/><rect class="cls-2" x="647.64" y="495" width="58" height="58" transform="translate(1353.29 1048) rotate(-180)"/><rect class="cls-2" x="473.5" y="495" width="58" height="58" transform="translate(1004.99 1048) rotate(-180)"/><rect class="cls-2" x="473.5" y="437" width="58" height="58" transform="translate(1004.99 932) rotate(-180)"/><rect class="cls-2" x="183.5" y="379.29" width="58" height="58" transform="translate(424.99 816.59) rotate(-180)"/></g><g id="Gird"><rect class="cls-3" x="125" y="146.71" width="464" height="464"/><line class="cls-3" x1="125.5" y1="552.71" x2="589.5" y2="552.71"/><line class="cls-3" x1="125.5" y1="494.71" x2="589.5" y2="494.71"/><line class="cls-3" x1="125.5" y1="436.71" x2="589.5" y2="436.71"/><line class="cls-3" x1="125.5" y1="378.71" x2="589.5" y2="378.71"/><line class="cls-3" x1="125.5" y1="320.71" x2="589.5" y2="320.71"/><line class="cls-3" x1="125.5" y1="262.71" x2="589.5" y2="262.71"/><line class="cls-3" x1="125.5" y1="204.71" x2="589.5" y2="204.71"/><line class="cls-3" x1="531" y1="146.21" x2="531" y2="610.21"/><line class="cls-3" x1="473" y1="146.21" x2="473" y2="610.21"/><line class="cls-3" x1="415" y1="146.21" x2="415" y2="610.21"/><line class="cls-3" x1="357" y1="146.21" x2="357" y2="610.21"/><line class="cls-3" x1="299" y1="146.21" x2="299" y2="610.21"/><line class="cls-3" x1="241" y1="146.21" x2="241" y2="610.21"/><line class="cls-3" x1="183" y1="146.21" x2="183" y2="610.21"/><rect class="cls-4" x="183.79" y="379" width="58" height="58" transform="translate(425.58 816) rotate(-180)"/><rect class="cls-4" x="183.79" y="495" width="58" height="58" transform="translate(425.58 1048) rotate(-180)"/><rect class="cls-4" x="356.64" y="378" width="58" height="58" transform="translate(771.29 814) rotate(-180)"/><rect class="cls-4" x="356.64" y="204.85" width="58" height="58" transform="translate(771.29 467.71) rotate(-180)"/><rect class="cls-4" x="647.94" y="263" width="58" height="58" transform="translate(1353.88 584) rotate(-180)"/><rect class="cls-4" x="647.94" y="146.98" width="58" height="58" transform="translate(1353.88 351.96) rotate(-180)"/><rect class="cls-4" x="647.94" y="379" width="58" height="58" transform="translate(1353.88 816) rotate(-180)"/><rect class="cls-4" x="647.94" y="495" width="58" height="58" transform="translate(1353.88 1048) rotate(-180)"/><rect class="cls-4" x="473.79" y="495" width="58" height="58" transform="translate(1005.58 1048) rotate(-180)"/><rect class="cls-4" x="473.79" y="437" width="58" height="58" transform="translate(1005.58 932) rotate(-180)"/></g><g id="Text-2" data-name="Text"><text class="cls-5" transform="translate(723.69 321.04)">miss</text><text class="cls-5" transform="translate(723.69 436.96)">hit (ship partially destroyed)</text><text class="cls-5" transform="translate(723.69 552.75)">hit (ship completely destroyed)</text><text class="cls-5" transform="translate(94.95 180.8)">0</text><text class="cls-5" transform="translate(150.36 122.13)">0</text><text class="cls-5" transform="translate(210.31 122.13)">1</text><text class="cls-5" transform="translate(266.63 122.13)">2</text><text class="cls-5" transform="translate(324.61 122.13)">3</text><text class="cls-5" transform="translate(381.67 122.13)">4</text><text class="cls-5" transform="translate(439.39 122.13)">5</text><text class="cls-5" transform="translate(497.36 122.13)">6</text><text class="cls-5" transform="translate(556.29 122.13)">7</text><text class="cls-5" transform="translate(96.91 238.76)">1</text><text class="cls-5" transform="translate(95.22 296.8)">2</text><text class="cls-5" transform="translate(95.2 354.76)">3</text><text class="cls-5" transform="translate(95.27 413.09)">4</text><text class="cls-5" transform="translate(94.98 471.05)">5</text><text class="cls-5" transform="translate(94.95 529.09)">6</text><text class="cls-5" transform="translate(95.88 587.05)">7</text><text class="cls-5" transform="translate(99.09 72.13)">GUESS L<tspan x="52.98" y="0">A</tspan><tspan x="60.61" y="0">Y</tspan><tspan x="67.6" y="0">OUT</tspan></text><line class="cls-6" x1="203.36" y1="224.87" x2="221.63" y2="243.13"/><line class="cls-6" x1="203.36" y1="243.13" x2="221.63" y2="224.87"/><line class="cls-6" x1="203.36" y1="283.29" x2="221.63" y2="301.56"/><line class="cls-6" x1="203.36" y1="301.56" x2="221.63" y2="283.29"/><line class="cls-6" x1="318.93" y1="398.87" x2="337.2" y2="417.13"/><line class="cls-6" x1="318.93" y1="417.13" x2="337.2" y2="398.87"/><line class="cls-6" x1="551.65" y1="340.72" x2="569.92" y2="358.99"/><line class="cls-6" x1="551.65" y1="358.99" x2="569.92" y2="340.72"/><line class="cls-6" x1="434.36" y1="282.87" x2="452.63" y2="301.13"/><line class="cls-6" x1="434.36" y1="301.13" x2="452.63" y2="282.87"/><line class="cls-6" x1="376.36" y1="224.87" x2="394.63" y2="243.13"/><line class="cls-6" x1="376.36" y1="243.13" x2="394.63" y2="224.87"/><line class="cls-6" x1="667.66" y1="283.01" x2="685.92" y2="301.28"/><line class="cls-6" x1="667.66" y1="301.28" x2="685.92" y2="283.01"/><text class="cls-5" transform="translate(723.69 205.02)">not yet guessed</text><line class="cls-6" x1="667.66" y1="399.01" x2="685.92" y2="417.28"/><line class="cls-6" x1="667.66" y1="417.28" x2="685.92" y2="399.01"/><line class="cls-6" x1="647.94" y1="495" x2="705.64" y2="553"/><line class="cls-6" x1="647.64" y1="553" x2="705.64" y2="495"/><line class="cls-6" x1="434.36" y1="224.87" x2="452.63" y2="243.13"/><line class="cls-6" x1="434.36" y1="243.13" x2="452.63" y2="224.87"/><line class="cls-6" x1="550.93" y1="166.87" x2="569.2" y2="185.13"/><line class="cls-6" x1="550.93" y1="185.13" x2="569.2" y2="166.87"/><line class="cls-6" x1="203.93" y1="514.87" x2="222.2" y2="533.13"/><line class="cls-6" x1="203.93" y1="533.13" x2="222.2" y2="514.87"/><line class="cls-6" x1="377.36" y1="398.87" x2="395.63" y2="417.13"/><line class="cls-6" x1="377.36" y1="417.13" x2="395.63" y2="398.87"/><line class="cls-6" x1="434.36" y1="514.87" x2="452.63" y2="533.13"/><line class="cls-6" x1="434.36" y1="533.13" x2="452.63" y2="514.87"/><line class="cls-6" x1="203.36" y1="340.72" x2="221.63" y2="358.99"/><line class="cls-6" x1="203.36" y1="358.99" x2="221.63" y2="340.72"/><line class="cls-6" x1="183.5" y1="379.29" x2="241.5" y2="437.29"/><line class="cls-6" x1="183.5" y1="437.29" x2="241.5" y2="379.29"/><line class="cls-6" x1="473.77" y1="437" x2="531.77" y2="495"/><line class="cls-6" x1="473.77" y1="495" x2="531.77" y2="437"/><line class="cls-6" x1="473.77" y1="495.29" x2="531.77" y2="553.29"/><line class="cls-6" x1="473.77" y1="553.29" x2="531.77" y2="495.29"/></g></svg>